<svg xmlns="http://www.w3.org/2000/svg" xmlns:xlink="http://www.w3.org/1999/xlink" version="1.1" id="Layer_1" x="0px" y="0px" style="enable-background:new 0 0 1280 1024;" xml:space="preserve" viewBox="277 -0.02 743 821.61">
<style type="text/css">
	.st0{fill:#F15A24;}
	.st1{fill:#ED1E79;}
	.st2{fill:#29ABE2;}
	.st3{fill:#2E3192;}
	.st4{fill:#009245;}
	.st5{fill:#ED1C24;}
</style>
<g>
	<g>
		<path d="M316.15,316.46c-3.4-0.63-5.5,1.81-6.16,7.46c-0.09,0.78-0.16,1.75-0.21,2.89c-0.05,1.14-0.29,1.91-0.73,2.29    c-0.61,0.63-0.88-0.58-0.76-3.58c0.02-1.07,0.09-2.12,0.21-3.17c0.6-5.05,2.31-8.21,5.03-9.51c1.14-0.56,2.52-0.68,4.12-0.36    c1.6,0.32,3.43,1.88,5.53,4.64c3.84,4.87,6.32,11.68,7.75,20.65c0.5,3,0.64,6.05,0.44,9.2c-0.2,3.15-0.84,6.38-1.92,9.74    c-1.99,6.22-4.96,10.65-9.08,13.14c-1.61,0.94-3.62,1.4-6.05,1.34c-2.42-0.06-5.49-1.37-9.15-4.03    c-7.16-6.05-13.14-16.18-17.19-30.19c-4.36-14.99-5.34-28.85-3.29-40.79c1.75-10.14,5.41-16.14,10.48-18.16    c2.21-0.92,4.66-0.98,7.31-0.21c0.87,0.25,1.75,0.6,2.63,1.03c4.02,2.05,8.35,5.57,13.08,10.42c0.81,0.81,1.37,1.26,1.68,1.34    c0.32,0.08,0.5,0,0.55-0.24c0.13-0.39-0.24-1.21-1.1-2.46c-5.29-7.73-9.55-16.14-12.69-25.1c-1.03-2.92-1.58-6.25-1.64-9.95    c-0.05-4.06,0.42-7.51,1.35-10.34c0.93-2.83,2.31-4.79,4.09-5.89c1.78-1.1,3.67-1.2,5.68-0.36c4.72,1.98,11.42,8.38,20.65,18.46    c1.83,2.03,3.02,3.29,3.54,3.81c-4.12-8.13-8.14-18.21-11.58-30.38c-3.44-12.17-3.85-22.26-1.76-29.71    c0.38-1.33,0.8-2.46,1.26-3.38c1.36-2.69,3.1-3.91,5.17-3.7c0.72,0.06,1.45,0.31,2.19,0.74c2.24,1.31,4.37,4.37,6.51,9.08    c4.41,9.66,8.55,16.46,12,20.71c4.52,5.69,7.93,8.97,10.05,10.04c2.13,1.07,4.03,1.66,5.68,1.8c3.32,0.28,6.02-1.94,8.27-6.58    c0.12-0.24,0.35-0.74,0.7-1.51c0.35-0.76,0.66-1.12,0.92-1.09c0.27,0.03,0.36,0.35,0.29,0.96c-0.08,0.6-0.24,1.16-0.49,1.67    c-0.25,0.51-0.47,0.9-0.66,1.18c-5.28,9.1-10.96,12.45-17.68,9.28c-2.42-1.15-4.89-3.17-7.36-6.1c-2.47-2.93-4.28-5.33-5.46-7.16    c-1.9-2.95-5.54-8.94-10.49-18.36c-1.9-3.39-3.55-5.53-5.01-6.34c-1.46-0.82-2.69-0.24-3.66,1.74c-1.34,2.76-1.64,8.07-0.58,15.78    c0.59,3.97,1.55,8.39,2.93,13.21c1.38,4.81,4.25,12.27,9.02,22c4.79,9.72,8.64,15.81,11.05,18.69c2.1,2.52,2.78,5.08,2.06,7.76    c-0.51,1.9-1.26,2.9-2.26,2.97c-0.44,0.09-0.74,0-0.9-0.28c-0.16-0.28-0.79-1.21-1.88-2.81c-1.09-1.6-2.23-3.27-3.42-5.01    c-1.19-1.74-2.85-3.92-4.97-6.56c-2.12-2.64-4.29-5.2-6.54-7.68c-5.58-6.02-11.58-11.16-18.14-15.27    c-0.75-0.47-1.72-0.95-2.92-1.43c-1.2-0.48-2.33-0.33-3.38,0.46c-1.06,0.79-1.78,1.79-2.16,2.98c-1.25,3.91-0.83,8.95,1.37,14.92    c2.92,8.08,6.23,15.13,9.78,21.19c3.55,6.06,6.73,10.67,9.41,13.96c2.68,3.29,5.97,7.08,9.91,11.3c3.94,4.22,6.09,6.37,6.36,6.63    c0.27,0.25,0.59,0.59,0.98,1.03c0.39,0.43,0.76,0.8,1.13,1.11c1.28,1.28,1.68,3.54,1.24,6.84c-0.25,1.92-0.77,2.9-1.58,2.92    c-0.15-0.02-0.32-0.09-0.51-0.2c-4.41-5.97-11.23-13.09-20.27-21.83c-11.4-11.15-19.69-18.07-25.55-19.61    c-6.92-1.88-11.58,2.29-13.41,12.97c-1.16,6.86-0.68,16.05,1.81,27.33c2.49,11.28,6.6,20.81,11.98,28.32    c2.12,2.97,4.23,5.19,6.29,6.7c3.78,2.62,6.81,3.93,9.05,4.04c6.46,0.29,10.74-3.37,13.12-10.56c0.87-2.51,1.39-5.05,1.56-7.66    c0.6-9.08-1.53-16.66-6.61-23.4C320.65,318.81,318.32,316.86,316.15,316.46z"/>
		<path d="M384.45,173.89c1.26,3.79,2.45,6.32,3.49,7.63c1.04,1.31,1.97,2.25,2.77,2.84c0.8,0.59,1.49,0.47,2.06-0.35    c0.72-1.03,0.9-2.83,0.58-5.42c-0.46-3.78-1.51-8.04-3.1-12.82c-0.19-0.5-0.2-0.91-0.03-1.21c0.22-0.53,0.5-0.65,0.86-0.36    c0.2,0.16,0.37,0.43,0.52,0.82c3.52,10.9,4.4,17.8,2.03,21.22c-1.09,1.57-2.54,2.44-4.36,2.61c-0.96,0.06-1.95-0.28-2.99-1.01    c-1.04-0.73-2.12-1.91-3.23-3.54c2.31,8.33,2.65,14,0.64,17.33c-0.55,0.92-1.26,1.62-2.13,2.1c-1.92,1.17-3.98,1.09-6.18-0.28    c-4.22-2.63-7.1-7.86-8.22-15.87c-0.58-4.48,0.16-9.12,2.26-13.79c0.55-1.28,1.18-2.42,1.87-3.42c1.88-2.7,4.16-4.47,6.78-5.3    c0.86-0.23,1.41-0.07,1.65,0.47c0.24,0.54,0.04,1.14-0.58,1.82c-1.91-0.49-3.64,0.33-5.15,2.48c-1.76,2.5-2.51,6.65-2.08,12.36    c0.29,3.29,1.02,6.62,2.18,9.97c1.34,4.13,2.9,6.7,4.56,7.78c1.67,1.07,2.93,0.88,3.8-0.56c2.11-3.46,0.95-10.44-2.83-21.48    c-0.78-2.19-1.17-3.87-1.2-5.03c-0.03-1.15,0.37-2.3,1.19-3.44c0.16-0.23,0.64-0.76,1.45-1.6c0.8-0.84,1.33-1.5,1.58-2.02    C382.61,167.4,383.19,170.1,384.45,173.89z"/>
		<path d="M401.21,128.83c1.63,1.61,1.76,4.55,0.54,8.83c0.98-0.97,2.27-2.3,3.88-3.95c1.61-1.66,3.57-3.81,5.91-6.44    c0.2,0.01,0.54,0.26,1,0.73c0.46,0.48,0.84,1.47,1.16,2.97c0.32,1.5,0.59,2.81,0.79,3.93c0.21,1.12,0.41,2.18,0.6,3.18    c0.19,1,0.47,2.18,0.85,3.53c0.38,1.36,0.77,2.56,1.18,3.6c1.63,3.89,3.21,5.03,4.69,3.51c1.9-1.95,1.65-7.73-0.2-17.67    c-0.11-0.8-0.01-1.25,0.32-1.35c0.32-0.09,0.56-0.06,0.72,0.11c0.16,0.17,0.38,1.04,0.67,2.61c0.3,1.57,0.58,3.22,0.85,4.92    c0.28,1.71,0.32,3.97,0.17,6.76c-0.11,3.4-0.9,5.88-2.46,7.5c-1.73,1.8-3.78,2.25-6.19,1.33c-0.47-0.17-1.03-0.57-1.7-1.2    c-0.67-0.63-1.3-1.74-1.89-3.35c-0.59-1.61-1.11-3.77-1.52-6.51c-0.41-2.74-0.66-4.32-0.79-4.73c-0.13-0.41-0.32-0.75-0.57-1    c-1.11-1.1-3.65,0.24-7.48,4.2c0.31,0.86,0.63,1.72,0.95,2.58c3.22,8.91,4.82,15.64,4.53,20.41c-0.07,0.8-0.4,0.95-0.98,0.45    c-0.12-0.1-0.21-0.27-0.28-0.5c-0.49-5.28-1.69-10.67-3.62-16.22c-1.93-5.55-4.13-10.36-6.71-14.38c-0.85-1.4-0.74-2.67,0.34-3.81    c1.08-1.13,2.38-1.45,3.89-0.95C400.32,128.1,400.77,128.4,401.21,128.83z"/>
		<path d="M452.27,155.61c-1.92,1.74-3.7,2.77-5.39,3.07c-1.68,0.3-2.99-0.01-3.91-0.96c-0.92-0.95-1.64-2.34-2.14-4.19    c-0.65-2.97,0.02-6.48,2.11-10.47c1.54-3.01,3.96-6.63,7.35-10.75c3.4-4.12,5.67-6.71,6.65-7.9c-0.17-3.89-1.47-10.04-3.67-18.59    c-0.04,6.4-0.31,11.14-1.01,14.3c-0.7,3.16-2.01,5.51-3.98,7.1c-2.66,2.15-4.93,2.57-6.86,1.21c-0.43-0.1-0.82-0.47-1.19-1.09    c-0.36-0.62-0.63-1.06-0.8-1.32c-0.17-0.25-0.33-0.77-0.48-1.54c-0.14-0.77-0.26-1.32-0.36-1.64c-0.2-1.35-0.31-2.45-0.32-3.29    c-0.81,0.67-1.3,0.55-1.47-0.37c-0.11-1.06-0.22-2.12-0.32-3.19c-0.35-3.98-0.63-7.33-0.87-10.04c-0.13-1.25,0.59-2.5,2.17-3.71    c1.66-1.27,3.33-2.52,5.01-3.76c-0.05,0.16-0.2,0.53-0.46,1.09c-0.62,1.22-0.92,2.33-0.92,3.34c-0.03,3.97,0.34,9.35,1.28,16.09    c0.39,2.75,0.96,4.55,1.67,5.41c0.71,0.86,1.4,1.32,2.07,1.37c0.66,0.05,1.32-0.18,1.96-0.7c0.95-0.76,1.63-2.59,2.1-5.52    c1.01-6.1,1.09-14.4,0.66-25.08c0-1.29,0.79-2.48,2.37-3.55c1.53-1.03,3.07-2.05,4.61-3.05c-0.98,1.72-1.49,3.45-1.54,5.16    c-0.05,1.71,0.12,3.87,0.53,6.48c0.41,2.61,1.05,6.01,1.98,10.2c0.92,4.19,1.66,7.32,2.13,9.43c3.94-4.61,6.28-9.19,6.94-13.94    c0.3-2.07,0.44-5.49,0.54-10.28c0-0.84,0.2-1.29,0.59-1.36c0.39-0.06,0.65,0.01,0.79,0.22c0.14,0.21,0.2,1.32,0.21,3.32    c0.01,2-0.04,3.89-0.16,5.68c-0.12,1.8-0.48,3.79-1.05,5.99c-0.57,2.2-1.45,4.25-2.65,6.15c-1.19,1.9-2.9,4.26-5.06,7.1    c0.4,8.52-0.02,15.46-1.48,20.98C458.49,148.11,455.98,152.25,452.27,155.61z M443.3,153.61c0.28,1.27,0.76,2.24,1.41,2.92    c0.65,0.68,1.45,0.92,2.41,0.72c0.96-0.2,1.89-0.72,2.81-1.57c2.53-2.33,4.25-5.87,5.3-10.72c1.05-4.85,1.74-9.56,2.02-14.16    c-0.05-1.15-0.1-2.31-0.14-3.46c-6.78,7.99-10.51,13.45-11.86,15.91C443.23,146.94,442.61,150.42,443.3,153.61z"/>
		<path class="st0" d="M610.09,7.09c8.11,2.32,12.19,5.87,12.52,10.3c0.26,3.5-2.24,7.43-7.22,11.94    c-2.87,2.65-6.26,5.06-10.18,7.28c-3.92,2.22-7.78,4.03-11.64,5.41c-6.69,2.36-12.71,4.17-18.19,5.36    c-1.18,0.25-2.35,0.49-3.54,0.71c-3.5,6.3-7.06,11.89-10.76,16.79c-5.5,7.01-12.02,11.77-20.02,14.57    c-7.64,2.68-12.93,2.92-16.12,0.34c-0.75-0.62-1.35-1.45-1.8-2.49c-0.45-1.04-0.25-2.44,0.62-4.2c1.36-2.76,4.05-4.92,8.05-6.37    c2.58-0.94,5.43-1.54,8.53-1.78c1.15-0.07,1.63,0.12,1.44,0.55c-0.18,0.27-1.01,0.44-2.5,0.52c-1.49,0.08-3.24,0.47-5.23,1.18    c-1.99,0.71-3.51,1.93-4.54,3.63c-1.03,1.71-1.26,3.21-0.72,4.52c0.21,0.51,0.54,0.98,0.99,1.4c1.98,2.16,5.15,2.39,9.59,0.82    c6.63-2.34,12.31-6.88,17.49-13.78c3.68-4.96,7.26-12.91,11.34-23.9c1.6-4.13,3.79-8.79,6.67-13.96    c2.88-5.17,6.14-9.69,9.69-13.56c0.44-0.43,1.02-0.99,1.72-1.66c1.32-1.44,2.45-2.58,3.36-3.44c-5.36,0.33-11.05,1.08-17.02,2.28    c-5.98,1.2-11.53,2.8-16.61,4.74c-5.08,1.95-9.39,3.94-12.95,5.92c-3.55,1.98-7.04,4.28-10.41,6.91c-3.38,2.63-5.96,5.48-7.75,8.5    c-2.39,3.87-2.95,7.28-1.83,10.18c0.69,1.79,2.22,3.13,4.56,4.06c2.5,0.98,5.2,0.97,8.15-0.01c2.95-0.98,5.52-2.72,7.78-5.24    c2.26-2.52,3.64-5.17,4.11-7.97c-0.04-0.35,0.05-0.63,0.25-0.81c0.2-0.19,0.43-0.24,0.67-0.15c0.25,0.09,0.42,0.3,0.52,0.64    c0.86,3.15-0.09,6.08-2.78,8.84c-2.69,2.76-5.93,4.76-9.81,6.04c-4.39,1.45-8.28,1.78-11.78,0.92c-3.5-0.86-5.87-2.72-7.06-5.66    c-1.09-2.71-1.06-5.54,0.17-8.49c1.23-2.95,3.07-5.64,5.53-8.03c2.46-2.39,5.46-4.78,9.03-7.11c6.07-3.91,12.82-7.24,20.17-9.91    c7.35-2.66,14.39-4.61,21.04-5.92c6.64-1.31,12.9-1.95,18.7-2.01c2.44-1.78,4.66-3.05,6.61-3.81c1.95-0.76,3.06-1.15,3.32-1.18    c0.26-0.03,0.43-0.03,0.51,0.01c0.45-0.05,0.56,0.1,0.34,0.45c-0.22,0.36-1.02,0.94-2.39,1.77c-1.37,0.83-2.65,1.78-3.85,2.86    C601.69,5.27,606.11,5.95,610.09,7.09z M574.22,45.94c4.79-1.05,9.86-2.71,15.32-4.95c5.46-2.24,10.26-4.83,14.43-7.85    c8.07-5.94,12.17-11.28,11.69-16.43c-0.52-5.79-7.33-9.3-20.64-9.55c-3.54,4.45-7.87,11.13-12.53,20.09    c-4.65,8.96-7.67,15.32-9.64,18.99C573.3,46.14,573.76,46.04,574.22,45.94z"/>
		<path class="st0" d="M636.74,46.5c-0.85,1.74-1.21,3.66-1.11,5.76c0.07,1.4,0.51,2.49,1.34,3.28c0.83,0.79,1.97,1.15,3.43,1.1    c5.76-0.21,10.87-4.55,15.92-13.06c0.48-0.8,1.05-1.14,1.71-1.03c0.26,0.05,0.39,0.18,0.39,0.38c0,0.2-0.79,1.5-2.3,3.91    c-1.51,2.42-3,4.38-4.48,5.88c-3.29,3.52-7.21,5.33-11.93,5.52c-2.52,0.1-4.69-0.44-6.53-1.64c-1.85-1.2-2.85-2.91-3-5.15    c-0.14-2.25,0.4-4.68,1.68-7.28c1.28-2.6,3.11-5.06,5.52-7.34c2.41-2.28,5.26-3.97,8.53-5.03c1.57-0.53,3.07-0.8,4.51-0.81    c1.44-0.01,2.77,0.29,3.99,0.89c1.15,0.7,1.71,1.48,1.7,2.33c-0.06,3.01-2.55,5.84-7.3,8.65c-1.45,0.87-3.49,1.67-6.09,2.42    C640.09,46.01,638.11,46.44,636.74,46.5z M653.34,34.11c0.01-1-0.53-1.5-1.62-1.5c-1.91,0.01-4.83,1.76-8.59,5.32    c-2.24,2.16-4.16,4.59-5.76,7.26c1.12-0.05,2.73-0.42,4.85-1.08c2.12-0.67,3.98-1.5,5.57-2.53    C651.43,39.18,653.32,36.72,653.34,34.11z"/>
		<path class="st0" d="M673.41,52.21c0.31-4.13,3.32-10.96,9.73-20.25c-1.77-0.14-3.55-0.26-5.33-0.38    c-0.34-0.02-0.55-0.17-0.63-0.45c-0.08-0.28-0.03-0.55,0.17-0.82c0.19-0.26,0.46-0.38,0.81-0.36c2.06,0.13,4.12,0.28,6.17,0.45    c2.87-3.73,5.59-6.8,8.09-9.22c2.51-2.42,4.78-3.97,6.77-4.67c1.99-0.7,3.4-1,4.22-0.89c0.82,0.1,1.4,0.23,1.75,0.37    c1.56,0.76,2.19,2,1.91,3.7c-0.28,1.7-1.44,3.66-3.42,5.87c-1.98,2.22-3.87,4.28-5.67,6.19c1.64,0.19,3.28,0.39,4.91,0.61    c0.34,0.04,0.54,0.21,0.6,0.49c0.06,0.29-0.02,0.55-0.23,0.8c-0.21,0.25-0.49,0.35-0.83,0.31c-1.97-0.25-3.94-0.49-5.91-0.72    c-4.38,4.19-9.32,7.84-14.79,11.03c-1,2.48-1.99,4.97-2.95,7.46c-0.25,0.63-0.4,1.26-0.46,1.89c-0.06,0.62,0.11,1.27,0.5,1.95    c0.39,0.68,1.05,1.05,2,1.13c1.07,0.08,2.3-0.12,3.7-0.6c3.24-1.52,7.04-4.94,11.65-10.2c0.32-0.42,0.68-0.65,1.05-0.71    c0.37-0.06,0.58,0.03,0.61,0.26c0.03,0.23-0.12,0.58-0.45,1.04c-2.65,3.16-4.64,5.41-6.04,6.72c-4.01,3.95-7.83,5.79-11.66,5.5    c-1.95-0.14-3.5-0.82-4.68-2.05C673.82,55.44,673.29,53.96,673.41,52.21z M694.18,32.97c-1.6-0.17-3.2-0.33-4.8-0.48    c-0.98,1.32-3.21,4.45-6.52,9.45C686.71,39.44,690.48,36.45,694.18,32.97z M695.73,31.48c5.31-5.35,8.32-9.08,8.67-11.36    c0.16-0.99-0.02-1.52-0.51-1.58c-0.78-0.1-2.09,0.54-3.91,1.94c-1.81,1.4-5.02,4.86-9.37,10.47    C692.31,31.12,694.02,31.29,695.73,31.48z"/>
		<path d="M863.01,64.27c4.68,6.81,5.44,12.1,2.73,15.7c-2.14,2.85-6.68,4.3-13.51,4.67c-3.97,0.26-8.19,0-12.68-0.71    c-4.5-0.71-8.67-1.69-12.56-2.99c-6.71-2.28-12.56-4.56-17.56-6.98c-1.07-0.52-2.14-1.05-3.19-1.61    c-6.89,2.73-13.36,4.88-19.48,6.43c-8.9,2.08-17.09,1.82-25.09-0.85c-7.65-2.54-11.86-5.56-12.58-9.49    c-0.16-0.93-0.07-1.94,0.28-3.01c0.35-1.08,1.43-2.04,3.27-2.86c2.88-1.31,6.38-1.35,10.41-0.05c2.6,0.83,5.19,2.1,7.73,3.78    c0.93,0.64,1.17,1.08,0.73,1.3c-0.32,0.1-1.07-0.27-2.27-1.11c-1.2-0.84-2.8-1.59-4.8-2.25c-2-0.66-3.98-0.63-5.9,0.06    c-1.92,0.7-3.1,1.72-3.56,3.05c-0.18,0.52-0.24,1.08-0.18,1.68c0.09,2.86,2.36,4.96,6.81,6.43c6.65,2.2,14.03,2.12,22.62-0.07    c6.14-1.6,14.2-5.57,24.66-11.56c3.98-2.21,8.78-4.48,14.45-6.7c5.67-2.22,11.19-3.73,16.51-4.52c0.63-0.06,1.44-0.14,2.44-0.22    c1.98-0.3,3.61-0.49,4.88-0.58c-4.34-3.03-9.22-5.94-14.62-8.66c-5.4-2.72-10.74-4.86-15.94-6.44c-5.21-1.58-9.86-2.65-13.91-3.28    c-4.05-0.63-8.27-0.95-12.62-0.97c-4.35-0.01-8.23,0.63-11.61,1.88c-4.42,1.54-7.11,3.83-8.19,6.76c-0.66,1.8-0.38,3.75,0.79,5.89    c1.27,2.27,3.35,3.89,6.26,4.92c2.92,1.03,6.05,1.24,9.47,0.65c3.42-0.58,6.25-1.79,8.48-3.66c0.21-0.3,0.46-0.45,0.74-0.48    c0.28-0.02,0.49,0.07,0.62,0.29c0.13,0.22,0.12,0.49-0.03,0.81c-1.44,2.95-4.13,4.63-8.04,5.14c-3.91,0.51-7.73,0.09-11.56-1.26    c-4.34-1.53-7.54-3.63-9.65-6.41c-2.11-2.78-2.69-5.65-1.64-8.64c0.97-2.75,2.88-4.92,5.79-6.45c2.91-1.54,6.11-2.5,9.6-2.86    c3.48-0.36,7.38-0.38,11.68-0.03c7.27,0.65,14.69,2.16,22.12,4.56c7.43,2.4,14.16,5.18,20.14,8.23c5.98,3.05,11.23,6.38,15.73,9.9    c3.07,0.13,5.62,0.52,7.62,1.14c2,0.62,3.12,1.01,3.34,1.14c0.22,0.14,0.35,0.25,0.39,0.33c0.38,0.24,0.37,0.42-0.04,0.56    c-0.41,0.14-1.41,0.09-3.02-0.11c-1.61-0.2-3.23-0.26-4.87-0.18C857.77,57.67,860.71,60.93,863.01,64.27z M809.49,72.16    c4.38,2.1,9.39,3.91,15.09,5.53c5.69,1.61,11.11,2.57,16.33,2.82c10.16,0.41,16.88-1.13,19.95-5.39    c3.47-4.77,0.59-11.72-9.48-20.11c-5.69,1.25-13.49,3.73-23.05,7.79c-9.56,4.06-16.13,7.13-20.09,8.76    C808.65,71.76,809.07,71.96,809.49,72.16z"/>
		<path d="M874.88,121.93c-3.82,0.98-6.4,1.97-7.79,2.9c-1.38,0.93-2.4,1.77-3.06,2.52c-0.66,0.74-0.62,1.42,0.11,2.03    c0.92,0.77,2.64,1.07,5.2,0.93c3.73-0.2,8-0.93,12.84-2.15c0.51-0.15,0.91-0.13,1.19,0.05c0.5,0.25,0.58,0.54,0.26,0.87    c-0.18,0.18-0.46,0.34-0.86,0.46c-11.04,2.68-17.84,3.08-20.89,0.54c-1.4-1.17-2.07-2.63-2.03-4.43c0.05-0.94,0.49-1.89,1.32-2.85    c0.83-0.96,2.08-1.95,3.78-2.93c-8.3,1.72-13.76,1.69-16.69-0.46c-0.81-0.59-1.38-1.33-1.73-2.21c-0.87-1.94-0.54-3.94,1.03-6    c3.02-3.95,8.32-6.43,16.1-7.02c4.35-0.29,8.72,0.73,12.99,3.08c1.17,0.62,2.2,1.31,3.09,2.05c2.41,2.01,3.89,4.35,4.41,6.98    c0.13,0.86-0.09,1.38-0.63,1.58c-0.55,0.19-1.12-0.04-1.71-0.69c0.68-1.83,0.07-3.58-1.85-5.2c-2.23-1.88-6.17-2.88-11.7-2.83    c-3.2,0.08-6.47,0.57-9.81,1.5c-4.11,1.05-6.74,2.41-7.96,3.96c-1.22,1.56-1.2,2.8,0.07,3.74c3.05,2.27,9.86,1.58,20.97-1.39    c2.21-0.61,3.88-0.89,5-0.84c1.12,0.05,2.19,0.51,3.21,1.39c0.2,0.17,0.67,0.68,1.4,1.52c0.73,0.84,1.32,1.4,1.8,1.69    C881.4,120.57,878.7,120.95,874.88,121.93z"/>
		<path d="M924.4,158.78c-13.96-0.06-22.04,1.66-24.63,3.75c-1.02,0.84-1.14,1.73-0.35,2.67c2.1,2.53,8.27,3.13,18.81,2.48    c0.81-0.1,1.29,0.06,1.4,0.47c0.12,0.42,0.08,0.7-0.13,0.85c-0.2,0.15-0.53,0.22-0.98,0.22c-6.51,0.38-11.28,0.38-14.37-0.2    c-3.09-0.58-5.37-1.73-6.87-3.52c-1.5-1.79-2.11-3.58-1.83-5.43c0.08-0.91,0.56-1.74,1.43-2.49c0.87-0.75,2.14-1.4,3.81-1.97    c1.67-0.56,4.88-0.92,9.66-0.92c1.18-0.01,1.99-0.18,2.4-0.52c0.41-0.34,0.25-0.95-0.49-1.84c-0.74-0.88-3.06-1.85-6.92-2.78    c-5.74-1.44-12.63-1.45-20.51,0.09c-0.64,0.07-1.17-0.02-1.59-0.27c-0.42-0.25-1.14-0.86-2.16-1.81c-1.02-0.95-1.77-1.5-2.22-1.67    c1.89-0.43,5.69-1.36,11.51-2.62c10.33-2.16,16.73-2.68,18.88-2.2c1.01,0.21,2,0.85,2.96,1.94c0.18,0.21,0.59,0.79,1.22,1.74    c0.63,0.96,1.16,1.61,1.6,1.97c-2.43-1.28-8.86-1.39-18.99,0.29c4.3,0.29,7.99,0.86,11.04,1.67c3.05,0.81,6.35,2.15,9.88,4.07    c3.52,1.92,5.82,3.63,6.88,5C924.07,158.11,924.26,158.44,924.4,158.78z"/>
		<path d="M923.39,198.95c0.36,0.79,0.62,1.33,0.79,1.61c1.36,2.27,3.69,3.92,7.05,5.02c1.84,0.58,5.95,1.12,12.39,1.91    c0.29,0,0.51,0.16,0.68,0.47c0.34,0.54,0.32,0.9-0.03,1.09c-0.09,0.05-0.42,0.05-0.99,0c-0.57-0.05-1.13-0.08-1.68-0.1    c-0.55-0.01-1.38-0.08-2.47-0.19c-1.09-0.11-1.99-0.22-2.68-0.34c-0.7-0.12-1.57-0.28-2.6-0.48c-1.03-0.2-1.91-0.48-2.63-0.84    c-0.83-0.34-1.66-0.68-2.48-1.01c-1.31-0.56-2.49-1.4-3.56-2.53c-1.76-1.8-3.02-3.8-3.8-6.03c-1.23-1.02-2.16-2.01-2.79-3.01    c-2.5-3.91-2.9-7-1.11-9.44c0.43-0.54,1.04-1.07,1.81-1.61c0.78-0.53,1.75-0.7,2.94-0.49c1.18,0.21,2.06,0.69,2.63,1.45    c6,0.12,11.36,0.27,16.06,0.32c5.14,0.1,8.74,1.88,10.65,5.22c0.51,0.88,0.85,1.83,1.05,2.85c0.19,1.02,0.05,1.52-0.43,1.5    c-0.48-0.02-0.8-0.44-0.97-1.26c-0.17-0.82-0.4-1.48-0.69-1.98c-0.29-0.5-0.61-0.9-0.95-1.2c-1.93-1.71-4.06-1.84-6.36-0.44    c-1.22,0.74-2.07,1.59-2.57,2.54c-0.5,0.96-1.03,2.01-1.59,3.16c-1.46,2.74-2.94,4.51-4.38,5.36c-1.45,0.85-3.22,1.06-5.33,0.67    C927.22,200.8,925.25,200.05,923.39,198.95z M919.78,188.42c-0.25,0.17-0.51,0.38-0.77,0.63c-0.85,1.2-0.76,2.59,0.27,4.19    c0.43,0.66,0.86,1.16,1.32,1.5c-0.32-2.69,0.55-4.84,2.65-6.47C921.83,187.77,920.67,187.82,919.78,188.42z M922.07,195.79    c2.99,1.54,6.13,1.35,9.43-0.67c1.34-0.82,3.06-2.16,5.15-4.01c2.09-1.85,3.53-3.04,4.36-3.55c0.82-0.51,1.4-0.83,1.74-0.95    c-9.37-0.53-15.02-0.55-17.09-0.66c0.77,1.19,0.52,2.2-0.76,3.03C922.38,190.64,921.46,192.9,922.07,195.79z"/>
		<path d="M942.45,235.72c0.51,1.21,1.48,2.28,2.91,3.25c2.69,1.64,7.41,3.19,14.21,4.96c0.88,0.2,1.27,0.6,1.16,1.19    c-0.05,0.17-0.17,0.3-0.38,0.39c-0.21,0.08-0.83,0.01-1.85-0.21c-1.02-0.22-1.94-0.42-2.76-0.59c-0.82-0.18-2.2-0.59-4.14-1.21    c-1.94-0.62-3.5-1.24-4.68-1.88c-3.24-1.74-5.34-3.7-6.33-6c-0.98-2.3-1.21-4.16-0.65-5.64c0.56-1.48,1.45-2.52,2.68-3.11    c1.23-0.59,2.77-0.83,4.61-0.7c4.65,0.28,9.32,0.65,14,1.13c0.33,0.01,0.73-0.09,1.2-0.29c0.46-0.21,0.89-0.88,1.28-2.03    c0.82,1.86,1.63,3.74,2.42,5.62c0.64,1.59,0.81,2.61,0.52,3.05c-0.29,0.44-0.99,0.49-2.1,0.16c-5.45-0.92-10.89-1.68-16.31-2.3    c-2.18-0.32-3.86-0.19-5.06,0.36C941.85,232.48,941.62,233.75,942.45,235.72z M972.02,234.59c-0.94-0.76-1.64-1.74-2.11-2.93    c-0.47-1.19-0.57-2.25-0.3-3.19c0.27-0.94,0.83-1.51,1.68-1.71c0.87-0.13,1.79,0.17,2.75,0.93c0.96,0.75,1.68,1.74,2.15,2.96    c0.47,1.22,0.57,2.32,0.29,3.3c-0.28,0.98-0.86,1.52-1.74,1.63C973.87,235.69,972.96,235.35,972.02,234.59z"/>
		<path d="M983.31,282.31c1.27,5.69-0.44,9.1-4.95,10.09c-2.06,0.46-4.44,0.09-7.13-1.02c-3.62-1.38-7.17-3.8-10.7-7.14    c-0.99,1.26-1.2,3.09-0.66,5.55c0.43,1.95,1.48,3.64,3.16,5.11c1.97,1.86,3.61,3.19,4.95,3.93c1.34,0.73,2.32,1.29,2.94,1.63    c0.62,0.35,1.5,0.78,2.64,1.32c1.14,0.53,1.83,0.86,2.08,0.98c0.25,0.11,0.41,0.36,0.47,0.75c0.18,0.77,0.07,1.19-0.32,1.27    c-0.15,0.03-0.33-0.02-0.56-0.14c-0.38-0.17-0.77-0.34-1.15-0.5c-0.77-0.33-1.32-0.59-1.66-0.76c-0.33-0.17-0.94-0.47-1.8-0.9    c-0.87-0.42-1.56-0.8-2.07-1.12c-0.52-0.33-1.21-0.77-2.08-1.33c-0.87-0.56-1.58-1.07-2.13-1.53c-0.55-0.46-1.17-1.04-1.87-1.73    c-0.7-0.69-1.27-1.36-1.72-2.03c-1.11-1.66-1.84-3.27-2.19-4.85c-0.65-2.95-0.57-5.39,0.29-7.37c-2.45-2.83-4.05-5.56-4.8-8.26    c-1.4-5.05,0.02-8.24,4.43-9.72c2.01-0.66,4.4-0.61,7.17,0.22c3.99,1.07,7.74,3.26,11.18,6.67    C980.29,274.82,982.45,278.5,983.31,282.31z M981.33,284.15c-0.46-2.09-1.91-4.34-4.34-6.67c-2.43-2.33-5.44-4.11-9-5.34    c-4.16-1.52-7.35-1.85-9.57-1.17c-2.22,0.69-2.97,2.24-2.31,4.69c0.47,1.75,1.64,3.52,3.5,5.38c0.83-1.45,1.87-2.36,3.13-2.71    c2.12-0.44,3.49,0.54,4.08,2.96c0.23,0.95,0.2,1.8-0.09,2.54c-0.29,0.74-0.62,1.16-0.99,1.25c-0.37,0.09-0.76,0.11-1.18,0.07    c1.51,0.93,3.56,1.93,6.17,3.03c2.9,1.27,5.54,1.67,7.94,1.12C981.05,288.75,981.96,287.02,981.33,284.15z"/>
		<path d="M990.9,364.58c-10.94-10.94-18.33-15.35-21.61-15.25c-1.3,0.06-1.91,0.86-1.84,2.4c0.18,4.15,4.69,9.5,13.35,17.1    c0.7,0.53,0.97,1.06,0.82,1.58c-0.15,0.52-0.35,0.78-0.6,0.77c-0.25,0-0.55-0.19-0.9-0.54c-5.33-4.72-9.08-8.42-11.18-11.4    c-2.1-2.98-3.21-5.89-3.35-8.82c-0.14-2.94,0.43-5.19,1.73-6.8c0.6-0.84,1.46-1.31,2.58-1.39c1.12-0.08,2.51,0.23,4.16,0.94    c1.65,0.71,4.39,2.79,8.17,6.45c0.94,0.89,1.67,1.34,2.2,1.32c0.53-0.02,0.76-0.76,0.69-2.21c-0.07-1.45-1.33-4.19-3.85-8.04    c-3.71-5.78-9.17-10.95-16.32-15.29c-0.55-0.4-0.92-0.88-1.11-1.44c-0.19-0.56-0.41-1.68-0.68-3.35    c-0.26-1.67-0.54-2.75-0.81-3.25c1.75,0.97,5.33,2.86,10.68,5.94c9.47,5.56,14.84,9.86,16.27,11.95c0.68,0.97,1.09,2.35,1.21,4.15    c0.02,0.34,0.01,1.23-0.05,2.66c-0.06,1.43-0.02,2.49,0.11,3.17c-1.18-3.13-6.19-8.13-15.2-14.07c3.25,3.5,5.83,6.86,7.77,9.97    c1.94,3.11,3.76,6.97,5.42,11.61c1.65,4.65,2.45,8.16,2.48,10.38C991.04,363.65,991,364.14,990.9,364.58z"/>
	</g>
</g>
<g>
	<g>
		<path d="M318.57,518.63c3.43-0.49,4.79-3.27,4.25-8.46c-0.07-0.72-0.2-1.6-0.38-2.63c-0.18-1.04-0.08-1.78,0.28-2.22    c0.49-0.7,0.95,0.32,1.42,3.01c0.19,0.95,0.34,1.9,0.45,2.85c0.5,4.6-0.34,7.85-2.6,9.88c-0.95,0.86-2.22,1.42-3.83,1.67    c-1.61,0.24-3.79-0.56-6.51-2.51c-4.92-3.39-9-9.44-11.9-18.41c-0.98-2.99-1.56-6.16-1.74-9.48c-0.18-3.32,0.15-6.81,1-10.42    c1.56-6.68,4.48-11.33,8.59-13.82c1.6-0.95,3.62-1.38,6.04-1.33c2.43,0.05,5.48,1.32,9.19,3.65c7.28,5.34,13.56,13.61,19.38,24.11    c6.28,11.23,10.24,20.93,11.72,30.18c1.27,7.83,0.13,13.38-3.71,17.08c-1.66,1.63-3.82,2.79-6.51,3.45    c-0.88,0.21-1.8,0.36-2.76,0.45c-4.4,0.31-9.68-0.39-15.8-2.35c-1.04-0.33-1.72-0.46-2.03-0.39c-0.32,0.07-0.46,0.22-0.41,0.45    c0.03,0.39,0.67,0.93,1.93,1.6c7.75,4.11,14.99,8.49,21.76,13.12c2.22,1.51,4.23,3.47,6.07,5.87c2.02,2.64,3.39,5.07,4.13,7.38    c0.73,2.31,0.72,4.33-0.06,6.11c-0.78,1.78-2.18,3.06-4.21,3.82c-4.77,1.77-13.64,2.3-26.71,0.48c-2.61-0.39-4.27-0.65-4.98-0.73    c7.91,3.93,16.94,8.72,27.17,13.79c10.23,5.06,17.28,9.62,21.24,14.61c0.71,0.89,1.25,1.72,1.63,2.48c1.1,2.23,0.97,4.09-0.4,5.65    c-0.46,0.54-1.07,1.02-1.83,1.43c-2.28,1.22-5.82,1.63-10.64,1.05c-9.89-1.21-17.53-2.08-22.88-1.99c-7.1,0-11.76,0.35-13.93,1.34    c-2.17,0.98-3.83,2.11-4.98,3.41c-2.3,2.58-2.24,6.7,0.34,12.16c0.13,0.28,0.42,0.86,0.87,1.73c0.45,0.87,0.58,1.41,0.41,1.63    c-0.17,0.22-0.5,0.08-0.97-0.43c-0.47-0.51-0.85-1.07-1.14-1.67c-0.29-0.6-0.49-1.1-0.61-1.47c-4.54-11.66-2.98-19.21,3.79-22.05    c2.46-1.06,5.58-1.49,9.32-1.37c3.75,0.12,6.66,0.28,8.75,0.53c3.36,0.39,10.06,1.4,19.99,2.37c3.65,0.25,6.22-0.05,7.71-0.81    c1.49-0.76,1.83-1.97,1.03-3.65c-1.11-2.35-4.62-5.07-10.5-8.59c-3.06-1.79-6.63-3.68-10.71-5.77c-4.08-2.1-10.88-4.95-20.36-9.33    c-9.48-4.41-15.95-7.6-19.51-8.7c-3.11-1-5.07-3.04-5.86-6.09c-0.56-2.17-0.41-3.58,0.41-4.23c0.33-0.35,0.63-0.43,0.91-0.25    c0.28,0.18,1.28,0.72,3.01,1.6c1.73,0.88,3.54,1.75,5.44,2.63c1.9,0.87,4.42,1.81,7.57,2.77c3.15,0.96,6.31,1.72,9.47,2.29    c7.8,1.3,15.43,1.13,22.9-0.22c0.85-0.15,1.88-0.44,3.1-0.87c1.21-0.43,2.03-1.21,2.46-2.35c0.43-1.13,0.5-2.19,0.19-3.18    c-0.99-3.23-3.81-6.22-8.47-9.22c-6.26-4.09-12.17-7.87-17.79-11.14c-5.62-3.28-10.24-5.95-13.9-7.78    c-3.66-1.83-8.03-4.01-13.1-6.66c-5.07-2.66-7.75-4.2-8.08-4.36c-0.33-0.17-0.74-0.41-1.24-0.73c-0.5-0.32-0.97-0.58-1.4-0.78    c-1.59-0.9-2.65-3.24-3.11-7.03c-0.27-2.21,0-3.46,0.78-3.73c0.15-0.02,0.33,0,0.54,0.07c5.73,5.21,14.23,10.39,25.49,14.94    c14.27,5.77,24.4,7.14,30.28,5.88c7.02-1.61,9.65-6.4,8.32-14.67c-0.85-5.37-3.61-11.85-8.06-20.11    c-4.46-8.26-9.52-15.49-15.43-21.53c-2.33-2.39-4.55-4.23-6.67-5.47c-3.89-2.15-6.95-3.3-9.2-3.3c-6.44-0.04-10.7,3.8-12.47,11.53    c-0.65,2.69-0.9,5.41-0.74,8.14c0.54,9.52,4.2,16.91,10.66,21.88C313.65,517.89,316.39,518.93,318.57,518.63z"/>
		<path d="M361.67,669.55c-3.99-0.06-6.78,0.11-8.37,0.63c-1.59,0.51-2.8,1.04-3.62,1.6c-0.82,0.56-0.93,1.29-0.31,2.2    c0.79,1.15,2.5,2.07,5.13,2.7c3.84,0.93,8.3,1.3,13.33,1.05c0.54-0.05,0.93,0.05,1.18,0.3c0.46,0.36,0.51,0.67,0.14,0.94    c-0.2,0.15-0.51,0.25-0.92,0.3c-11.49,0.53-18.71-1.52-21.31-5.37c-1.2-1.78-1.56-3.63-1.1-5.52c0.28-0.97,0.95-1.81,2.01-2.5    c1.06-0.69,2.56-1.23,4.49-1.64c-8.64-1.23-14.15-3.97-16.34-7.71c-0.61-1.04-0.93-2.11-0.97-3.21c-0.2-2.49,0.85-4.38,3.1-5.66    c4.33-2.48,10.21-2.21,17.66,0.25c4.16,1.41,7.87,3.88,11.22,7.41c0.92,0.95,1.71,1.9,2.36,2.86c1.76,2.6,2.61,5.23,2.56,7.95    c-0.06,0.88-0.37,1.36-0.94,1.44c-0.57,0.07-1.08-0.28-1.52-1.07c1.05-1.68,0.86-3.54-0.58-5.63c-1.67-2.43-5.11-4.47-10.38-6.34    c-3.06-1.04-6.33-1.8-9.82-2.29c-4.27-0.7-7.26-0.61-8.96,0.4c-1.71,1.01-2.1,2.32-1.15,3.92c2.26,3.83,9.34,6.43,20.92,6.91    c2.31,0.06,4,0.26,5.07,0.62c1.08,0.36,2.01,1.1,2.81,2.24c0.16,0.23,0.5,0.85,1.04,1.87c0.54,1.02,1.02,1.72,1.42,2.11    C368.36,669.82,365.65,669.6,361.67,669.55z"/>
		<path d="M402.22,693.67c-1.69,1.55-4.59,1.67-8.7,0.19c0.87,1.03,2.07,2.36,3.62,4c1.55,1.63,3.61,3.58,6.21,5.81    c-0.02,0.2-0.26,0.53-0.74,0.99c-0.48,0.46-1.47,0.86-2.98,1.18c-1.51,0.32-2.84,0.57-3.98,0.76c-1.14,0.18-2.22,0.35-3.25,0.5    c-1.02,0.15-2.23,0.38-3.64,0.68c-1.4,0.3-2.65,0.61-3.75,0.94c-4.07,1.32-5.33,2.81-3.7,4.53c2.06,2.17,8.32,2.52,18.43,0.46    c0.81-0.13,1.28-0.04,1.4,0.28c0.11,0.32,0.09,0.56-0.07,0.72c-0.16,0.16-1.04,0.41-2.65,0.74c-1.61,0.33-3.29,0.62-5.07,0.88    c-1.77,0.26-4.14,0.25-7.1-0.08c-3.6-0.32-6.29-1.42-8.01-3.26c-1.92-2.05-2.34-4.29-1.25-6.66c0.2-0.46,0.65-0.99,1.34-1.6    c0.69-0.6,1.88-1.1,3.58-1.51c1.69-0.41,3.94-0.7,6.75-0.9c2.8-0.21,4.41-0.39,4.83-0.5c0.42-0.11,0.76-0.29,1.03-0.53    c1.17-1.08-0.1-3.57-3.66-7.65c-0.88,0.24-1.77,0.47-2.66,0.7c-9.21,2.31-16.36,2.61-21.23,1.17c-0.81-0.27-0.92-0.64-0.33-1.12    c0.12-0.1,0.3-0.15,0.55-0.17c5.49,0.76,11.14,0.51,16.91-0.7c5.77-1.21,10.73-3.03,14.91-5.33c1.45-0.76,2.65-0.61,3.63,0.44    c0.98,1.05,1.16,2.28,0.56,3.72C402.99,692.82,402.67,693.25,402.22,693.67z"/>
		<path d="M377.11,745.79c-2.46-2.29-4-4.42-4.63-6.35c-0.64-1.93-0.46-3.36,0.49-4.28c0.95-0.92,2.44-1.56,4.44-1.95    c3.25-0.45,7.22,0.5,11.99,2.73c3.6,1.64,8.04,4.1,13.38,7.22c5.35,3.11,8.85,4.95,10.44,5.74c4.09-0.87,10.17-3.42,18.03-7.85    c-6.41,1.72-11.43,2.44-14.93,2.34c-3.51-0.1-6.38-1.08-8.58-2.9c-2.96-2.46-3.88-4.78-2.82-6.87c0.03-0.45,0.33-0.89,0.92-1.32    c0.59-0.43,1-0.75,1.23-0.95c0.23-0.2,0.74-0.42,1.52-0.65c0.78-0.24,1.32-0.42,1.64-0.56c1.37-0.37,2.48-0.63,3.34-0.77    c-0.84-0.71-0.8-1.21,0.11-1.51c1.07-0.26,2.13-0.53,3.19-0.8c3.97-0.98,7.26-1.91,9.88-2.73c1.21-0.39,2.56,0.01,4.06,1.19    c1.58,1.24,3.17,2.47,4.78,3.67c-0.17,0-0.56-0.04-1.17-0.12c-1.33-0.25-2.49-0.24-3.48,0.02c-3.9,0.96-9.17,2.54-15.91,4.57    c-2.75,0.83-4.51,1.64-5.26,2.48c-0.74,0.84-1.07,1.59-0.96,2.28c0.11,0.68,0.51,1.32,1.22,1.9c1.04,0.85,3.17,1.27,6.36,1.2    c6.63-0.13,15.18-1.98,25.32-5.86c1.24-0.42,2.61-0.11,4.12,0.94c1.46,1.01,2.93,2.01,4.4,2.99c-1.96-0.21-3.76-0.04-5.42,0.52    c-1.66,0.56-3.68,1.45-6.09,2.68c-2.41,1.22-5.57,2.88-9.5,4.92c-3.93,2.04-6.94,3.51-8.98,4.46c6.27,2.89,11.99,3.77,17.01,2.81    c2.2-0.41,5.67-1.45,10.32-3.22c0.81-0.32,1.32-0.32,1.55,0c0.23,0.32,0.27,0.59,0.12,0.8c-0.14,0.21-1.17,0.71-3.1,1.49    c-1.93,0.78-3.81,1.43-5.64,1.95c-1.83,0.52-3.98,0.87-6.46,1.03c-2.48,0.16-4.95-0.09-7.41-0.74c-2.46-0.66-5.59-1.74-9.39-3.32    c-8.9,2.2-16.83,2.6-23.56,1.35C387.46,753.07,381.86,750.2,377.11,745.79z M377.68,735.92c-1.39,0.21-2.42,0.64-3.1,1.3    c-0.67,0.66-0.81,1.53-0.41,2.63c0.4,1.09,1.18,2.19,2.35,3.29c3.21,3.02,7.77,5.12,13.55,6.13c5.79,1.01,11.24,1.3,16.34,0.96    c1.24-0.21,2.47-0.43,3.7-0.66c-10.76-5.73-17.49-9.75-20.5-11.16C385.14,736.27,381.19,735.41,377.68,735.92z"/>
		<path class="st0" d="M602.96,766.54c5.94,3.87,8.84,7.91,8.35,12.34c-0.39,3.47-3.25,7.01-8.85,10.42    c-3.24,2-7.03,3.58-11.36,4.69c-4.33,1.11-8.59,1.67-12.71,1.71c-7.14,0.02-13.51-0.67-19.03-1.93c-1.18-0.27-2.36-0.57-3.52-0.9    c-6.23,4.03-12.58,7.09-18.95,9.19c-9.28,2.89-18.79,2.67-27.94-0.65c-8.74-3.19-13.27-7.06-13.68-11.1    c-0.09-0.97,0.11-1.96,0.6-2.99c0.49-1.03,1.75-1.82,3.77-2.4c3.17-0.93,6.79-0.58,10.96,0.99c2.69,1.02,5.37,2.39,8.08,4.14    c0.99,0.66,1.26,1.1,0.81,1.32c-0.33,0.1-1.15-0.29-2.43-1.17c-1.28-0.88-2.97-1.7-5.06-2.47c-2.09-0.78-4.17-0.91-6.24-0.39    c-2.08,0.52-3.41,1.4-4,2.69c-0.23,0.51-0.33,1.06-0.29,1.67c-0.08,2.89,2.37,5.34,7.38,7.18c7.47,2.74,15.91,2.78,24.81-0.03    c6.36-2.04,14.22-6.91,23.01-14.83c3.36-2.95,7.33-6.2,11.83-9.82c4.5-3.61,8.77-6.68,12.86-9.19c0.49-0.26,1.13-0.61,1.9-1.03    c1.5-0.95,2.73-1.71,3.7-2.25c-4.17-1.22-8.65-2.32-13.46-3.34c-4.81-1.03-9.4-1.77-13.84-2.22c-4.44-0.45-8.36-0.73-11.79-0.78    c-3.43-0.05-7,0.09-10.75,0.41c-3.74,0.32-7.15,1.11-10.23,2.4c-4.01,1.6-6.68,3.78-7.91,6.65c-0.75,1.76-0.65,3.71,0.35,5.86    c1.08,2.28,3.06,3.93,5.88,4.91c2.82,0.98,5.89,1.06,9.13,0.25c3.24-0.82,5.82-2.3,7.75-4.39c0.17-0.31,0.39-0.5,0.64-0.56    c0.25-0.05,0.45,0.02,0.58,0.21c0.13,0.2,0.15,0.46,0.03,0.8c-1.11,3.08-3.49,5.07-7.22,5.89c-3.73,0.82-7.5,0.58-11.24-0.71    c-4.24-1.46-7.29-3.67-9.11-6.52c-1.83-2.85-2.04-5.74-0.75-8.64c1.19-2.67,3.18-4.71,5.91-6.17c2.73-1.46,5.6-2.41,8.62-2.88    c3.02-0.46,6.33-0.69,9.95-0.73c6.11-0.01,12.25,0.43,18.49,1.29c6.24,0.86,11.98,1.8,17.25,2.9c5.27,1.1,10.08,2.39,14.47,3.91    c2.39-1.03,4.4-1.69,6.07-1.96c1.67-0.26,2.6-0.39,2.8-0.36c0.2,0.03,0.33,0.07,0.38,0.13c0.35,0.05,0.4,0.22,0.14,0.51    c-0.26,0.3-1.01,0.69-2.26,1.17c-1.26,0.48-2.49,1.08-3.72,1.81C596.77,762.99,600.05,764.63,602.96,766.54z M559.01,792    c4.77,1.1,10.15,1.59,16.03,1.39c5.89-0.2,11.22-1.25,15.93-3.05c9.15-3.61,13.82-8.22,14.48-13.31    c0.74-5.84-4.19-10.24-14.34-13.93c-4.05,3.32-9.54,8.42-16.91,15.09c-7.38,6.66-13.06,11.07-16.57,13.49    C558.09,791.78,558.55,791.89,559.01,792z"/>
		<path class="st0" d="M620.46,809.58c-1.1,1.64-1.74,3.5-1.91,5.6c-0.12,1.4,0.23,2.53,1.05,3.41c0.82,0.88,2.05,1.36,3.69,1.44    c6.47,0.32,12.62-3.82,17.84-12.34c0.49-0.8,1.08-1.15,1.76-1.05c0.27,0.05,0.41,0.18,0.41,0.38c0,0.2-0.78,1.52-2.38,3.93    c-1.6,2.42-3.25,4.36-4.92,5.83c-3.7,3.44-8.32,5.06-13.68,4.78c-2.86-0.15-5.23-0.95-7.1-2.39c-1.87-1.44-2.67-3.28-2.45-5.52    c0.22-2.24,1.21-4.56,2.91-6.97c1.7-2.41,3.88-4.62,6.52-6.65c2.64-2.03,5.56-3.49,8.78-4.38c1.55-0.45,3.01-0.66,4.39-0.63    c1.39,0.03,2.67,0.35,3.85,0.96c1.11,0.71,1.66,1.49,1.65,2.34c-0.05,2.99-2.51,5.88-7.55,8.51c-1.54,0.81-3.7,1.51-6.5,2.07    C624.04,809.44,621.91,809.66,620.46,809.58z M638.18,798.2c0.03-1-0.5-1.51-1.56-1.52c-1.86-0.03-4.72,1.63-8.75,4.93    c-2.41,2.01-4.61,4.25-6.59,6.74c1.17,0.07,2.89-0.14,5.16-0.65c2.26-0.5,4.24-1.24,5.92-2.19    C636.21,803.26,638.11,800.8,638.18,798.2z"/>
		<path class="st0" d="M659.84,815.42c-0.17-4.15,2.46-11.2,7.14-21.27c-1.71,0.11-3.43,0.21-5.15,0.3    c-0.33,0.02-0.55-0.11-0.66-0.38c-0.11-0.27-0.09-0.55,0.06-0.83c0.15-0.28,0.39-0.43,0.72-0.45c1.97-0.1,3.94-0.22,5.91-0.35    c2.1-4.1,3.99-7.56,5.73-10.37c1.74-2.81,3.34-4.76,4.87-5.85c1.52-1.09,2.63-1.68,3.34-1.76c0.71-0.08,1.23-0.09,1.55-0.03    c1.49,0.38,2.35,1.42,2.57,3.13c0.22,1.71-0.23,3.88-1.41,6.48c-1.18,2.61-2.38,5.03-3.59,7.27c1.57-0.16,3.14-0.34,4.7-0.52    c0.33-0.04,0.56,0.07,0.69,0.33c0.13,0.26,0.13,0.54,0,0.83c-0.13,0.29-0.36,0.46-0.69,0.5c-1.9,0.22-3.81,0.43-5.71,0.62    c-3.14,4.99-7.26,9.5-12.38,13.44c-0.63,2.6-1.28,5.19-1.95,7.79c-0.18,0.66-0.25,1.3-0.22,1.93c0.03,0.63,0.31,1.25,0.84,1.87    c0.53,0.62,1.33,0.9,2.39,0.83c1.2-0.08,2.53-0.47,3.98-1.18c3.26-2.05,6.69-6.14,10.05-12.28c0.22-0.48,0.52-0.78,0.88-0.92    c0.36-0.14,0.59-0.1,0.68,0.11c0.09,0.22,0.03,0.59-0.19,1.12c-1.88,3.67-3.46,6.29-4.65,7.86c-3.37,4.69-7.34,7.19-11.69,7.46    c-2.21,0.14-4.07-0.34-5.53-1.42C660.65,818.59,659.9,817.17,659.84,815.42z M677.65,793.3c-1.55,0.15-3.09,0.28-4.64,0.41    c-0.68,1.46-2.18,4.92-4.7,10.36C671.8,801.02,674.92,797.43,677.65,793.3z M678.76,791.53c3.73-6.3,5.27-10.63,5-12.92    c-0.12-0.99-0.4-1.46-0.84-1.42c-0.69,0.08-1.64,0.99-2.89,2.73c-1.25,1.74-3.23,5.77-6.19,12.05    C675.49,791.84,677.13,791.69,678.76,791.53z"/>
		<path d="M812.75,721.73c7.2-0.74,12.14,0.52,14.72,4.24c2.02,2.91,2.17,7.43,0.11,13.55c-1.17,3.57-3.05,7.14-5.67,10.68    c-2.62,3.54-5.54,6.61-8.72,9.18c-5.52,4.42-10.94,7.8-16.07,10.2c-1.1,0.52-2.22,1-3.34,1.46c-2.14,6.91-5.03,13.14-8.56,18.64    c-5.27,7.88-12.8,13.48-22.11,16.46c-8.91,2.84-15,2.61-18.02-0.25c-0.71-0.69-1.22-1.58-1.53-2.67    c-0.31-1.09,0.14-2.46,1.31-4.14c1.84-2.64,4.87-4.57,9.15-5.89c2.76-0.85,5.77-1.41,9.03-1.71c1.21-0.09,1.72,0.08,1.51,0.53    c-0.19,0.28-1.08,0.47-2.66,0.57c-1.58,0.1-3.44,0.49-5.58,1.16c-2.14,0.67-3.84,1.83-5.1,3.48c-1.26,1.66-1.71,3.15-1.3,4.5    c0.16,0.53,0.46,1.02,0.89,1.47c1.87,2.28,5.41,2.68,10.52,1.07c7.62-2.42,14.2-7.52,19.23-15.09c3.57-5.44,6.41-13.97,7.94-25.45    c0.63-4.32,1.55-9.26,2.62-14.8c1.07-5.54,2.34-10.52,3.84-14.97c0.21-0.51,0.47-1.16,0.79-1.96c0.53-1.66,0.98-2.99,1.36-4.01    c-4.05,1.64-8.27,3.56-12.69,5.72c-4.42,2.16-8.5,4.39-12.25,6.76c-3.75,2.36-6.98,4.54-9.68,6.58c-2.7,2.05-5.38,4.33-8.07,6.85    c-2.69,2.52-4.81,5.2-6.33,8.06c-2.04,3.67-2.65,6.97-1.68,9.93c0.59,1.81,1.98,3.26,4.2,4.3c2.37,1.1,5,1.18,7.84,0.22    c2.84-0.96,5.28-2.75,7.25-5.35c1.97-2.6,2.98-5.31,3.08-8.1c-0.07-0.35-0.03-0.62,0.13-0.82c0.16-0.2,0.36-0.26,0.6-0.19    c0.24,0.07,0.42,0.27,0.56,0.59c1.2,3.04,0.68,6.03-1.67,8.93c-2.35,2.89-5.43,5.01-9.2,6.28c-4.27,1.44-8.11,1.6-11.43,0.5    c-3.33-1.09-5.43-3.18-6.36-6.21c-0.87-2.78-0.69-5.56,0.45-8.34c1.14-2.78,2.73-5.26,4.76-7.45c2.03-2.19,4.45-4.38,7.23-6.6    c4.74-3.72,9.8-7.11,15.23-10.26c5.43-3.15,10.52-5.93,15.35-8.31c4.83-2.38,9.43-4.36,13.86-5.91c1.16-2.27,2.28-4.03,3.4-5.27    c1.12-1.24,1.75-1.92,1.93-2.02c0.18-0.11,0.31-0.15,0.38-0.14c0.31-0.18,0.46-0.08,0.45,0.3c0,0.39-0.32,1.16-0.98,2.31    c-0.65,1.15-1.21,2.38-1.68,3.7C805.57,722.86,809.21,722.09,812.75,721.73z M795.65,768.44c4.45-2.07,8.95-4.99,13.38-8.77    c4.44-3.79,7.88-7.89,10.33-12.2c4.69-8.46,5.22-14.93,2.33-19.26c-3.33-4.95-10.1-5.22-20.44-1.76    c-0.92,5.06-1.78,12.38-3.04,22.04c-1.27,9.66-2.74,16.53-3.84,20.54C794.8,768.84,795.22,768.64,795.65,768.44z"/>
		<path d="M870.46,728.28c0.34,3.93,0.8,6.67,1.46,8.19c0.66,1.52,1.31,2.67,1.94,3.44c0.63,0.77,1.36,0.81,2.19,0.13    c1.05-0.86,1.78-2.62,2.14-5.26c0.54-3.85,0.47-8.27-0.25-13.22c-0.1-0.53-0.04-0.92,0.18-1.19c0.31-0.48,0.61-0.55,0.92-0.21    c0.17,0.19,0.3,0.48,0.38,0.89c1.61,11.3,0.3,18.56-3.2,21.41c-1.62,1.31-3.39,1.81-5.28,1.49c-0.98-0.2-1.86-0.8-2.66-1.79    c-0.79-0.99-1.48-2.42-2.07-4.28c-0.29,8.57-2.35,14.17-5.71,16.59c-0.93,0.67-1.93,1.06-2.98,1.19c-2.38,0.37-4.31-0.53-5.8-2.64    c-2.88-4.06-3.32-9.84-1.77-17.32c0.91-4.18,2.91-8,6.01-11.56c0.83-0.98,1.68-1.83,2.56-2.54c2.37-1.92,4.88-2.97,7.57-3.13    c0.88-0.01,1.38,0.26,1.51,0.82c0.13,0.56-0.17,1.09-0.91,1.58c-1.76-0.91-3.58-0.57-5.48,1c-2.22,1.83-3.86,5.36-5.12,10.68    c-0.68,3.08-1.07,6.34-1.15,9.8c-0.2,4.23,0.23,7.16,1.4,8.76c1.17,1.6,2.47,1.89,3.92,0.85c3.45-2.49,5.2-9.62,4.47-21.04    c-0.18-2.27-0.15-3.95,0.09-5.04c0.24-1.09,0.88-2.06,1.92-2.93c0.21-0.17,0.79-0.56,1.74-1.17c0.95-0.61,1.6-1.13,1.94-1.57    C870.07,721.67,870.12,724.36,870.46,728.28z"/>
		<path d="M906.02,676.65c3.23,13.62,5.53,21.8,8.08,24.03c0.99,0.88,1.94,0.8,2.84-0.26c2.41-2.82,2.33-9.62-0.79-19.98    c-0.3-0.78-0.26-1.29,0.12-1.54c0.38-0.24,0.67-0.28,0.86-0.12c0.2,0.16,0.35,0.46,0.46,0.91c1.97,6.4,2.81,11.35,2.7,14.74    c-0.11,3.4-1.06,6.13-2.8,8.16c-1.75,2.03-3.62,3.07-5.59,3.14c-0.97,0.1-1.88-0.25-2.72-1.03c-0.84-0.78-1.62-1.98-2.35-3.62    c-0.73-1.63-1.38-4.88-2.07-9.69c-0.19-1.19-0.49-1.96-0.89-2.31c-0.4-0.35-0.98-0.08-1.75,0.81c-0.77,0.89-1.38,3.35-1.93,7.38    c-0.89,6.01-0.61,13.04,0.71,21.23c0.05,0.67-0.07,1.24-0.36,1.72c-0.3,0.47-0.99,1.29-2.1,2.44c-1.1,1.15-1.77,1.97-2,2.46    c-0.29-1.98-0.94-5.97-2.14-11.9c-2.09-10.52-3.3-16.72-3.01-18.9c0.11-1.02,0.64-2.05,1.6-3.1c0.18-0.2,0.71-0.67,1.56-1.4    c0.86-0.73,1.43-1.34,1.71-1.82c-0.91,2.58-0.05,8.84,2.01,19.07c0.17-4.45,0.46-8.25,0.96-11.43c0.49-3.17,1.39-6.66,2.64-10.48    c1.25-3.82,2.37-6.4,3.44-7.75C905.45,677.12,905.73,676.86,906.02,676.65z"/>
		<path d="M944.75,662.54c0.6-0.77,1-1.32,1.2-1.64c1.58-2.56,2.11-5.79,1.55-9.6c-0.33-2.06-1.75-6.29-4.44-12.51    c-0.15-0.26-0.14-0.55,0.04-0.87c0.27-0.61,0.58-0.81,0.93-0.61c0.09,0.05,0.26,0.35,0.52,0.89c0.26,0.54,0.53,1.06,0.8,1.57    c0.27,0.51,0.65,1.29,1.11,2.35c0.46,1.06,0.81,1.95,1.06,2.66c0.24,0.72,0.53,1.61,0.85,2.69c0.33,1.08,0.5,2.07,0.51,2.97    c0.08,0.98,0.16,1.97,0.24,2.95c0.09,1.57-0.17,3.21-0.76,4.89c-0.93,2.73-2.32,5.08-4.15,7.02c-0.51,1.75-1.14,3.19-1.88,4.32    c-2.93,4.46-5.93,6.24-8.85,5.45c-0.66-0.21-1.37-0.6-2.12-1.16c-0.76-0.56-1.22-1.48-1.4-2.73c-0.18-1.26-0.01-2.32,0.53-3.19    c-1.92-5.95-3.89-11.1-5.81-15.47c-2.06-4.81-2.19-8.72-0.31-11.89c0.49-0.84,1.12-1.58,1.87-2.22c0.75-0.64,1.24-0.75,1.46-0.33    c0.22,0.43,0.03,0.91-0.57,1.44c-0.6,0.53-1.04,1.04-1.33,1.52c-0.28,0.48-0.47,0.94-0.55,1.39c-0.53,2.48,0.31,4.46,2.56,5.94    c1.19,0.78,2.31,1.19,3.38,1.2c1.06,0.01,2.23,0,3.49-0.04c3.07,0.01,5.32,0.44,6.74,1.34c1.41,0.9,2.41,2.46,2.97,4.7    C944.93,657.79,945.06,660.12,944.75,662.54z M935.98,671.27c0.25,0.18,0.54,0.34,0.87,0.49c1.45,0.31,2.78-0.43,3.97-2.24    c0.49-0.75,0.82-1.43,0.98-2.05c-2.47,1.66-4.85,1.77-7.13,0.42C934.68,669.51,935.11,670.64,935.98,671.27z M942.26,665.47    c0.35-3.76-1.13-6.71-4.35-8.85c-1.31-0.87-3.25-1.85-5.8-2.95c-2.55-1.1-4.22-1.93-5.02-2.46c-0.8-0.54-1.33-0.94-1.59-1.19    c3.58,8.85,5.48,14.45,6.13,16.51c0.85-1.27,1.89-1.47,3.14-0.59C937.22,667.66,939.73,667.54,942.26,665.47z"/>
		<path d="M966.48,620.77c0.6-1.36,0.79-3.02,0.56-4.96c-0.57-3.48-2.63-8.53-6.34-14.96c-0.5-0.81-0.52-1.4-0.05-1.78    c0.15-0.1,0.33-0.11,0.53-0.02c0.21,0.09,0.61,0.6,1.2,1.54c0.59,0.93,1.12,1.78,1.59,2.54c0.47,0.76,1.17,2.14,2.09,4.14    c0.92,2,1.54,3.74,1.88,5.2c0.94,4,0.8,7.34-0.36,9.96c-1.16,2.62-2.52,4.23-4.03,4.84c-1.51,0.61-2.87,0.58-4.08-0.06    c-1.21-0.64-2.32-1.79-3.34-3.44c-2.64-4.12-5.34-8.18-8.1-12.18c-0.21-0.27-0.55-0.52-1-0.74c-0.46-0.22-1.22-0.11-2.3,0.33    c0.79-1.85,1.56-3.71,2.31-5.59c0.65-1.56,1.22-2.39,1.72-2.48c0.5-0.09,1.03,0.39,1.57,1.47c3.16,4.76,6.25,9.61,9.24,14.54    c1.15,2.04,2.3,3.36,3.47,3.96C964.35,623.75,965.5,622.99,966.48,620.77z M945.58,598.49c0.18,1.2,0.03,2.38-0.44,3.53    c-0.47,1.15-1.12,1.93-1.95,2.33c-0.83,0.41-1.6,0.35-2.32-0.15c-0.69-0.57-1.12-1.45-1.28-2.64c-0.16-1.19-0.02-2.34,0.44-3.48    c0.46-1.13,1.09-1.92,1.92-2.38c0.83-0.46,1.6-0.41,2.31,0.14C944.96,596.41,945.4,597.29,945.58,598.49z"/>
		<path d="M962.54,554.11c1.3-5.55,4.11-7.81,8.59-6.63c2.04,0.54,4.05,2,5.99,4.42c2.66,3.12,4.76,7.34,6.19,12.65    c1.46-0.68,2.54-2.4,3.19-5.19c0.51-2.21,0.33-4.51-0.56-6.85c-0.97-2.88-1.95-5.01-2.88-6.37c-0.93-1.36-1.62-2.35-2.07-2.98    c-0.44-0.63-1.09-1.45-1.95-2.47c-0.86-1.02-1.38-1.63-1.57-1.85c-0.19-0.22-0.25-0.53-0.17-0.94c0.1-0.83,0.34-1.2,0.73-1.11    c0.15,0.03,0.3,0.15,0.47,0.36c0.3,0.33,0.6,0.65,0.9,0.98c0.6,0.65,1.02,1.14,1.27,1.46c0.25,0.32,0.69,0.87,1.34,1.68    c0.64,0.81,1.14,1.49,1.49,2.05c0.35,0.57,0.82,1.33,1.4,2.3c0.58,0.98,1.02,1.83,1.33,2.57c0.31,0.74,0.64,1.63,0.99,2.69    c0.34,1.06,0.57,2.04,0.68,2.95c0.28,2.27,0.2,4.32-0.22,6.13c-0.79,3.37-2.07,5.79-3.79,7.24c0.69,4.23,0.56,7.92-0.33,11.01    c-1.68,5.81-4.78,7.81-9.12,6.17c-1.99-0.75-3.85-2.39-5.61-4.89c-2.63-3.49-4.51-7.65-5.74-12.53    C961.86,562.1,961.66,557.85,962.54,554.11z M965.08,553.5c-0.48,2.08-0.2,4.78,0.81,8.15c1.01,3.37,2.68,6.66,5.01,9.89    c2.68,3.86,5.08,6.22,7.27,7c2.19,0.78,3.69-0.2,4.47-2.99c0.56-1.98,0.52-4.44-0.13-7.35c-1.44,0.93-2.78,1.17-4.03,0.77    c-2.02-0.83-2.68-2.54-2.02-5.14c0.26-1.03,0.69-1.81,1.28-2.35c0.6-0.54,1.08-0.76,1.44-0.65c0.36,0.11,0.72,0.3,1.06,0.58    c-0.88-1.73-2.22-3.8-4.04-6.19c-2.02-2.7-4.23-4.36-6.61-5.01C967.24,549.55,965.74,550.66,965.08,553.5z"/>
		<path d="M974.08,473.32c10.56,11.4,17.15,17.82,20.46,18.1c1.3,0.12,2-0.69,2.09-2.45c0.25-4.71-3.8-11.54-12.37-19.74    c-0.69-0.57-0.96-1.13-0.81-1.68c0.15-0.55,0.35-0.82,0.6-0.81c0.25,0.01,0.55,0.2,0.9,0.58c5.32,5.04,8.9,9.43,10.81,12.97    c1.91,3.54,2.76,7.05,2.57,10.44c-0.19,3.39-1.07,5.87-2.59,7.45c-0.71,0.84-1.63,1.19-2.75,1.05c-1.12-0.13-2.44-0.74-3.97-1.81    c-1.53-1.07-3.93-3.82-7.3-8.13c-0.84-1.06-1.53-1.6-2.05-1.64c-0.52-0.05-0.82,0.68-0.91,2.17c-0.09,1.49,0.87,4.43,2.78,8.88    c2.79,6.68,7.09,13.42,12.88,20.46c0.43,0.61,0.66,1.27,0.7,1.95c0.04,0.68-0.04,2-0.26,3.95c-0.22,1.94-0.28,3.23-0.18,3.88    c-1.37-1.71-4.19-5.11-8.57-10.02c-7.74-8.74-12.3-13.99-13.34-16.37c-0.51-1.09-0.68-2.52-0.54-4.3c0.03-0.34,0.17-1.2,0.42-2.59    c0.25-1.39,0.35-2.44,0.29-3.14c0.78,3.29,5.11,8.9,12.68,17.45c-2.45-4.52-4.42-8.53-5.88-12.08c-1.46-3.54-2.78-7.73-4.03-12.57    c-1.25-4.84-1.9-8.35-1.84-10.56C973.91,474.24,973.97,473.76,974.08,473.32z"/>
	</g>
</g>
<circle class="st1" cx="991" cy="419" r="29"/>
<circle class="st1" cx="306" cy="419" r="29"/>
<g transform="translate(0.000000,177.000000) scale(0.100000,-0.100000)">
	<path class="st2" d="M5906.7-499.43c-30.15-7.67-136.39-49.07-236.89-90.47c-101.94-41.4-218.23-87.4-261.3-102.74   c-77.53-29.13-103.37-56.73-76.09-85.87c10.05-10.73,66.04,4.6,176.59,49.07c422.1,167.14,443.63,173.27,565.67,173.27   c76.09,0,178.03-16.87,302.93-49.07c282.83-72.07,509.68-110.4,720.73-122.67c198.13-10.73,216.79-18.4,218.23-82.8   c0-59.8-86.14-76.67-445.07-88.93c-315.86-9.2-338.83-7.67-371.85,18.4c-45.94,38.33-110.55,36.8-407.74-10.73   c-241.2-39.87-307.24-62.87-272.78-99.67c10.05-10.73,97.63-1.53,301.5,30.67c159.36,26.07,295.76,47.53,304.37,47.53   c25.84,0,73.22-58.27,73.22-92c0-46-47.38-82.8-160.8-121.14c-57.43-19.93-167.98-65.93-246.94-102.74   c-222.53-105.8-256.99-113.47-519.73-113.47c-226.84,0-275.66-9.2-238.33-49.07c21.54-23,371.85-33.73,480.96-13.8   c53.12,9.2,180.9,56.73,285.71,102.74c104.81,47.53,232.58,99.67,282.83,116.54c106.24,35.27,188.08,108.87,188.08,170.2v38.33   l320.16,6.13c305.81,4.6,321.6,6.13,390.51,42.93c89.01,47.53,119.16,102.74,93.32,170.2c-28.71,70.53-66.04,90.47-179.46,90.47   c-170.85,0-627.41,79.73-854.25,147.2C6245.53-493.3,5979.92-479.5,5906.7-499.43z"/>
	<path class="st2" d="M6570-1439.38c-57.43-30.67-120.6-105.8-216.79-251.47c-18.66-27.6-57.43-39.87-244.07-75.13   c-120.6-21.47-226.84-46-235.46-53.67c-17.23-18.4,12.92-311.27,41.64-384.87c40.2-102.74,89.01-124.2,367.54-162.54l77.53-10.73   l27.28-245.34c25.84-243.8,45.94-312.81,81.84-274.47c14.36,15.33,4.31,142.6-40.2,496.81l-10.05,84.33l-64.61,10.73   c-304.37,50.6-337.39,58.27-354.62,84.33c-27.28,38.33-45.94,121.14-55.99,243.8l-10.05,107.34l199.56,36.8   c110.55,18.4,211.05,41.4,223.97,49.07c12.92,6.13,53.12,55.2,89.01,108.87c34.46,52.13,84.71,116.54,109.11,141.07l44.51,46   l216.79,4.6c209.61,4.6,216.79,4.6,251.25-30.67c48.81-47.53,61.74-76.67,99.06-216.2c21.54-84.33,27.28-122.67,14.36-125.74   c-8.61-3.07-60.3-12.27-113.42-21.47c-126.34-19.93-155.06-41.4-221.1-162.54c-31.59-59.8-67.48-104.27-90.45-115   c-20.1-9.2-53.12-30.67-74.66-50.6c-37.33-32.2-38.76-36.8-24.41-105.8c33.02-161,107.68-222.34,294.32-242.27   c67.48-7.67,126.34-16.87,130.65-21.47c2.87-3.07,12.92-81.27,21.54-173.27c15.79-164.07,31.59-205.47,64.61-168.67   c12.92,13.8,12.92,62.87,1.44,202.4c-8.61,101.2-21.54,191.67-27.28,200.87c-7.18,9.2-76.09,21.47-152.19,27.6   c-178.03,13.8-226.84,46-262.73,174.8c-11.49,46-8.61,50.6,47.38,82.8c37.33,21.47,77.53,65.93,106.24,111.94   c93.32,157.94,89.01,154.87,244.07,176.34c150.75,21.47,146.44,18.4,261.3,167.14l51.69,67.47l31.59-113.47   c63.17-217.74,165.11-627.14,211.05-852.55c41.64-194.74,51.69-226.94,74.66-226.94c22.97,0,27.28,10.73,24.41,58.27   c-5.74,107.34-239.76,1073.35-291.45,1203.69c-21.54,55.2-51.69,39.87-139.26-72.07c-53.12-67.47-87.58-99.67-93.32-88.93   s-18.66,53.67-27.28,98.14c-21.54,101.2-80.4,216.2-132.09,256.07c-35.89,29.13-64.61,32.2-251.25,36.8   C6647.53-1402.58,6630.3-1404.11,6570-1439.38z"/>
</g>
<g>
	<path class="st3" d="M443.18,582.44c-0.67-0.56-1.08-1.27-1.22-2.13c-0.26-1.48-0.49-3.03-0.69-4.64   c-0.29-2.23-0.52-4.45-0.69-6.65c-0.49-6.03-0.56-11.53-0.19-16.5c0.11-1.4,0.81-2.39,2.08-2.96c1.29-0.59,2.49-0.45,3.61,0.41   c0.46,0.35,0.97,0.72,1.53,1.1c0.59-1.64,1.51-3.24,2.77-4.78c1.55-1.87,3.24-3.28,5.09-4.23c2.22-1.15,4.31-1.43,6.29-0.86   c2.04,0.57,3.71,1.92,5.02,4.04c1,1.66,1.65,3.56,1.94,5.71c0.27,1.91,0.19,3.71-0.24,5.38h0.67c0.65,0,1.16,0,1.51,0   c0.89-0.02,1.68,0.33,2.37,1.03c0.7,0.69,1.05,1.52,1.05,2.51c0,0.97-0.35,1.8-1.05,2.49c-0.69,0.7-1.48,1.05-2.39,1.05h-1.43   c-1.04,0.02-2.45-0.01-4.23-0.07c-0.67-0.02-1.48-0.04-2.44-0.07l-2.53-0.1c-2.3-0.08-4.68-0.55-7.15-1.41   c-1.85-0.64-3.71-1.49-5.6-2.56c0,3.86,0.22,7.96,0.67,12.29c0.18,1.56,0.37,3.11,0.57,4.64c0.08,0.61,0.17,1.19,0.26,1.75   c0.06,0.45,0.13,0.87,0.19,1.27c0.16,0.97-0.04,1.86-0.6,2.65c-0.57,0.8-1.35,1.28-2.32,1.44c-0.19,0.03-0.38,0.05-0.57,0.05   C444.59,583.28,443.83,583,443.18,582.44z M462.19,554.61c0.16-0.8,0.17-1.68,0.05-2.65c-0.14-1.1-0.48-2.05-1-2.85   c-0.48-0.73-0.95-1.1-1.41-1.1c-1.26,0-2.67,1.02-4.23,3.06c-0.54,0.72-1.02,1.45-1.44,2.2c-0.38,0.67-0.57,1.08-0.55,1.22   c1.32,0.7,3.01,1.15,5.07,1.34c0.72,0.08,1.39,0.11,2.01,0.1c0.54-0.02,0.85-0.05,0.93-0.1   C461.84,555.68,462.03,555.27,462.19,554.61z"/>
	<path class="st3" d="M470.68,563.41c-0.97,0-1.81-0.34-2.51-1.03c-0.69-0.7-1.03-1.54-1.03-2.51c0-0.99,0.34-1.83,1.03-2.51   c0.7-0.69,1.54-1.03,2.51-1.03c3.75,0,6.22-0.11,7.41-0.33c1.69-0.32,2.81-0.94,3.37-1.87c0.14-0.22,0.23-0.62,0.26-1.2   c0.05-0.77-0.03-1.67-0.24-2.7c-0.4-2.1-1.16-4.32-2.3-6.65c-0.42-0.88-0.46-1.78-0.14-2.7c0.32-0.92,0.92-1.6,1.79-2.03   c0.89-0.43,1.8-0.48,2.73-0.14c0.92,0.32,1.59,0.92,2.01,1.79c0.21,0.42,0.41,0.85,0.6,1.29c0.25,0.59,0.5,1.18,0.74,1.77   c0.59,1.59,1.04,3.12,1.36,4.57c0.92,4.13,0.67,7.37-0.77,9.71c-1.5,2.44-3.83,4.06-7.01,4.88c-1.21,0.3-2.6,0.5-4.16,0.6   c-0.62,0.05-1.47,0.08-2.53,0.1H470.68z M472.07,574.84c-0.54-0.33-0.94-0.8-1.2-1.39c-0.35-0.8-0.37-1.6-0.07-2.42   c0.32-0.81,0.88-1.39,1.67-1.75c1.66-0.77,3.83-1.4,6.53-1.91c1.94-0.37,4.33-0.32,7.15,0.14c0.86,0.14,1.55,0.57,2.06,1.29   c0.51,0.7,0.69,1.48,0.55,2.34c-0.14,0.86-0.57,1.55-1.29,2.06c-0.7,0.51-1.48,0.69-2.34,0.55c-2.1-0.35-3.77-0.4-5-0.14   c-1.93,0.32-3.62,0.8-5.07,1.46c-0.41,0.17-0.85,0.26-1.29,0.26C473.14,575.34,472.58,575.17,472.07,574.84z"/>
	<path class="st3" d="M490.6,579.4c-0.54-0.81-0.72-1.71-0.53-2.68c0.19-0.96,0.69-1.71,1.51-2.25c0.13-0.08,0.33-0.21,0.6-0.38   l0.38-0.24l0.38-0.26c0.32-0.21,0.61-0.4,0.86-0.57c0.7-0.49,1.35-1,1.94-1.51c1.59-1.34,2.95-2.83,4.06-4.47   c3.08-4.59,4.34-10.39,3.78-17.38c-0.08-0.97,0.2-1.83,0.84-2.58c0.62-0.73,1.42-1.15,2.39-1.24c0.97-0.08,1.83,0.2,2.58,0.84   c0.75,0.62,1.16,1.42,1.24,2.39c0.18,1.87,0.48,3.4,0.91,4.59c0.18,0.46,0.36,0.87,0.55,1.22c0.16,0.27,0.32,0.5,0.48,0.69   c0.46,0.51,1.12,0.77,1.98,0.77c0.97,0,1.81,0.34,2.51,1.03c0.69,0.69,1.03,1.52,1.03,2.51c0,0.97-0.34,1.81-1.03,2.51   c-0.7,0.69-1.54,1.03-2.51,1.03c-1.85,0-3.49-0.41-4.93-1.22c-0.88,3.27-2.23,6.25-4.06,8.94c-1.45,2.14-3.19,4.07-5.21,5.79   c-0.75,0.62-1.55,1.24-2.39,1.84c-0.32,0.22-0.66,0.46-1.03,0.72l-0.48,0.29l-0.43,0.29c-0.24,0.16-0.41,0.27-0.5,0.33   c-0.61,0.4-1.26,0.6-1.96,0.6C492.29,580.98,491.3,580.46,490.6,579.4z"/>
	<path class="st3" d="M531.61,563.93c-1.59-0.08-3.18-0.56-4.76-1.44c-1.21-0.67-2.38-1.55-3.52-2.65   c-2.36,2.38-5.28,3.56-8.78,3.56c-0.97,0-1.81-0.35-2.51-1.05c-0.69-0.69-1.03-1.52-1.03-2.51c0-0.97,0.34-1.8,1.03-2.49   c0.7-0.7,1.54-1.05,2.51-1.05c1.58,0,2.87-0.53,3.87-1.58c0.8-0.84,1.79-2.53,2.99-5.05l0.67-1.39c0.25-0.53,0.49-0.99,0.72-1.39   c0.56-1.02,1.13-1.88,1.72-2.58c1.82-2.2,4.07-3.3,6.74-3.3c3.57,0,6.35,1.57,8.35,4.71c1.35,2.15,2.06,4.5,2.1,7.05   c0.05,3.49-0.88,6.22-2.8,8.18c-1.96,1.99-4.22,2.99-6.79,2.99L531.61,563.93z M527.33,553.72c1.72,2.09,3.28,3.13,4.69,3.13   c0.83,0,1.59-0.45,2.3-1.34c0.65-0.84,0.98-1.71,0.98-2.61c0-1.23-0.3-2.33-0.91-3.32c-0.77-1.24-1.8-1.73-3.11-1.46   c-0.54,0.11-1.04,0.48-1.51,1.1c-0.49,0.65-1.15,1.83-1.96,3.52L527.33,553.72z"/>
	<path class="st4" d="M577.16,579.21c-0.56-0.03-1.11-0.08-1.65-0.14c-1.45-0.18-2.84-0.45-4.16-0.84c-3.27-0.96-5.89-2.46-7.87-4.5   c-2.65-2.77-3.88-6.26-3.71-10.45c0.06-1.67,0.38-3.71,0.96-6.12c0.22-0.94,0.5-2.01,0.84-3.2l0.43-1.6l0.45-1.53   c0.29-0.96,0.49-1.64,0.6-2.06c0.27-0.96,0.84-1.67,1.7-2.15c0.84-0.46,1.74-0.57,2.68-0.31c0.94,0.27,1.65,0.84,2.13,1.7   c0.48,0.85,0.58,1.74,0.31,2.68c-0.13,0.45-0.33,1.16-0.6,2.13l-0.19,0.67l-0.22,0.67l-0.38,1.41c-0.3,1.07-0.56,2.02-0.77,2.85   c-0.53,2.17-0.81,3.89-0.86,5.17c-0.1,2.18,0.49,3.93,1.75,5.24c1.13,1.18,2.77,2.06,4.93,2.65c1.64,0.46,3.26,0.69,4.85,0.69   c3.54,0,6.69-0.67,9.45-2.01c0.88-0.43,1.59-0.88,2.13-1.36c0.22-0.18,0.41-0.35,0.55-0.53c0.11-0.14,0.2-0.27,0.26-0.38   c-0.11-0.11-0.24-0.23-0.38-0.36c-0.21-0.18-0.46-0.36-0.77-0.55c-0.59-0.42-1.67-1.04-3.23-1.89l-1.12-0.6l-1.1-0.62   c-0.81-0.48-1.51-0.92-2.08-1.34c-0.65-0.48-1.16-0.92-1.53-1.34c-0.72-0.78-1.09-1.64-1.12-2.58c-0.02-0.33,0.01-0.67,0.07-1   c0.03-0.13,0.06-0.25,0.1-0.36c0.03-0.1,0.06-0.18,0.1-0.26c0.1-0.21,0.21-0.41,0.33-0.62c0.18-0.27,0.38-0.51,0.62-0.72   c0.65-0.59,1.47-0.94,2.46-1.05c0.48-0.03,1.07-0.02,1.77,0.05c0.69,0.06,1.98,0.25,3.9,0.55l0.6,0.1l0.65,0.1   c0.48,0.06,0.92,0.13,1.32,0.19c1.02,0.16,1.96,0.29,2.82,0.38c2.26,0.27,4.23,0.4,5.91,0.38c0.97,0.02,1.8,0.37,2.49,1.05   c0.7,0.7,1.05,1.54,1.05,2.51c0,0.97-0.35,1.81-1.05,2.51c-0.69,0.69-1.52,1.02-2.49,1c-0.89,0.02-2.27-0.19-4.14-0.62   c-1.61-0.37-3.11-0.78-4.5-1.24c1.75,0.7,3.24,1.62,4.47,2.75c1.34,1.24,2.01,2.46,2.01,3.63c0,3.2-2.08,5.93-6.24,8.18   c-3.91,2.09-8.34,3.13-13.3,3.13C577.98,579.24,577.58,579.23,577.16,579.21z"/>
	<path class="st4" d="M626.97,556.33c0.97,0,1.8,0.34,2.49,1.03c0.7,0.69,1.05,1.52,1.05,2.51c0,0.97-0.35,1.81-1.05,2.51   c-0.69,0.69-1.51,1.03-2.49,1.03c-4.21,0.1-8.07-1.75-11.6-5.52c-1.32,1.94-3.36,3.37-6.1,4.28c-2.46,0.83-5.53,1.24-9.23,1.24   c-0.97,0-1.81-0.34-2.51-1.03c-0.69-0.7-1.03-1.54-1.03-2.51s0.34-1.81,1.03-2.51c0.7-0.69,1.54-1.03,2.51-1.03   c3.08,0,5.48-0.32,7.22-0.96c0.64-0.24,1.16-0.51,1.58-0.81c0.29-0.22,0.51-0.45,0.67-0.69c0.4-0.59,0.49-1.45,0.29-2.58   c-0.06-0.43-0.18-0.9-0.36-1.41c-0.13-0.38-0.28-0.77-0.45-1.17l-0.1-0.29c-0.99-1.82-2.46-4.7-4.4-8.66l-1.27-2.61   c-0.49-0.99-0.52-1.99-0.07-3.01l-0.5,0.19c-0.38,0.13-0.77,0.19-1.15,0.19c-0.75,0-1.43-0.22-2.06-0.65   c-0.62-0.43-1.06-1.01-1.32-1.75c-0.32-0.92-0.26-1.83,0.17-2.7c0.43-0.88,1.11-1.47,2.03-1.79c9.56-3.32,17.68-7.8,24.34-13.44   c0.75-0.64,1.61-0.92,2.58-0.84c0.97,0.08,1.78,0.49,2.42,1.24c0.62,0.75,0.89,1.61,0.81,2.58c-0.08,0.97-0.49,1.78-1.24,2.42   c-6.06,5.13-13.18,9.38-21.38,12.75c0.77,0.35,1.34,0.91,1.72,1.67l1.29,2.63c3.51,7.16,6.21,12,8.11,14.52   c1.59,2.12,3.16,3.59,4.69,4.42C624.73,556.18,625.83,556.42,626.97,556.33z M602.41,521.22c-0.18-0.49-0.16-0.97,0.05-1.43   c0.22-0.48,0.57-0.81,1.05-1c3.94-1.5,8.5-3.82,13.68-6.96c0.45-0.27,0.92-0.34,1.44-0.22c0.51,0.13,0.9,0.42,1.17,0.86   s0.34,0.92,0.22,1.43c-0.13,0.51-0.41,0.89-0.86,1.15c-5.37,3.27-10.14,5.69-14.3,7.27c-0.21,0.08-0.43,0.12-0.67,0.12   C603.32,522.44,602.73,522.04,602.41,521.22z"/>
	<path class="st4" d="M627.02,563.41c-0.97,0-1.81-0.34-2.51-1.03c-0.69-0.7-1.03-1.54-1.03-2.51c0-0.99,0.34-1.83,1.03-2.51   c0.7-0.69,1.54-1.03,2.51-1.03c2.63,0,4.54-0.11,5.74-0.33c1.69-0.32,2.81-0.94,3.37-1.87c0.14-0.22,0.23-0.62,0.26-1.2   c0.05-0.77-0.03-1.67-0.24-2.7c-0.4-2.1-1.16-4.32-2.3-6.65c-0.41-0.88-0.46-1.78-0.14-2.7c0.32-0.92,0.92-1.6,1.79-2.03   c0.89-0.43,1.8-0.48,2.73-0.14c0.92,0.32,1.59,0.92,2.01,1.79c0.21,0.42,0.41,0.85,0.6,1.29c0.25,0.59,0.5,1.18,0.74,1.77   c0.59,1.59,1.04,3.12,1.36,4.57c0.92,4.13,0.67,7.37-0.76,9.71c-1.5,2.44-3.83,4.06-7.01,4.88c-1.21,0.3-2.6,0.5-4.16,0.6   c-0.62,0.05-1.31,0.08-2.06,0.1H627.02z M638.52,531.79c0,1.1-0.43,2.1-1.29,3.01c-0.86,0.88-1.81,1.31-2.85,1.31   c-1.07,0-2.22-0.43-3.44-1.29c-0.86-0.92-1.29-1.94-1.29-3.04c0-0.99,0.46-1.96,1.39-2.92c0.94-0.96,1.94-1.43,2.99-1.43   c1.07,0,2.08,0.45,3.04,1.34C638.04,529.69,638.52,530.69,638.52,531.79z"/>
	<path class="st4" d="M657.1,563.31c-1.1-0.13-2.1-0.37-2.99-0.72c-1.16-0.48-2.16-1.16-2.99-2.03c-1.1-1.15-1.86-2.61-2.27-4.38   c-0.33-1.4-0.49-5.37-0.48-11.91v-2.25v-2.3c-0.02-1.71-0.04-3.21-0.07-4.52c-0.08-3.33-0.26-5.93-0.55-7.8   c-0.14-0.97,0.07-1.86,0.65-2.65c0.59-0.78,1.36-1.24,2.32-1.39c0.97-0.14,1.85,0.07,2.63,0.65c0.8,0.59,1.27,1.36,1.41,2.32   c0.32,2.1,0.53,4.92,0.62,8.44c0.03,1.39,0.06,2.98,0.07,4.78v7.84c0,1.18,0.01,2.18,0.02,3.01c0.05,2.18,0.14,3.56,0.26,4.14   c0.17,0.73,0.48,1.2,0.91,1.41c0.48,0.24,1.5,0.36,3.06,0.36c0.97,0,1.81,0.34,2.5,1.03s1.04,1.52,1.04,2.51   c0,0.97-0.35,1.81-1.04,2.5s-1.53,1.04-2.5,1.04C658.4,563.39,657.53,563.36,657.1,563.31z"/>
	<path class="st4" d="M657.44,562.38c-0.68-0.7-1.03-1.54-1.03-2.51c0-0.99,0.34-1.83,1.03-2.51c0.7-0.69,1.54-1.03,2.51-1.03   c4.81,0,9.8-0.58,14.95-1.75c6.04-1.37,10.9-3.28,14.56-5.71c-0.96-0.13-2.35-0.37-4.18-0.72c-0.62-0.13-1.45-0.29-2.49-0.48   l-1.24-0.24l-1.24-0.26c-4.05-0.76-6.36-1.1-6.93-1c-1.21,0.19-1.94,0.41-2.18,0.65c-0.35,0.35-0.73,1.35-1.15,2.99   c-0.24,0.94-0.78,1.67-1.63,2.18c-0.83,0.49-1.72,0.63-2.68,0.41c-0.94-0.24-1.67-0.78-2.18-1.63c-0.49-0.84-0.63-1.74-0.41-2.68   c0.53-2.1,1.32-3.85,2.39-5.24c1.39-1.8,3.5-3,6.34-3.61c3.01-0.65,10.74,0.87,23.17,4.57c0.45,0.14,0.76,0.24,0.93,0.29   c1.24,0.37,2.04,1.18,2.39,2.44c0.35,1.26,0.1,2.37-0.77,3.32c-4.26,4.72-10.29,8.27-18.1,10.67c-6.31,1.93-12.83,2.89-19.56,2.89   C658.98,563.41,658.14,563.06,657.44,562.38z M677.93,530.98c0,1.1-0.43,2.1-1.29,3.01c-0.86,0.88-1.81,1.32-2.85,1.32   c-1.07,0-2.22-0.43-3.44-1.29c-0.86-0.92-1.29-1.94-1.29-3.04c0-0.99,0.46-1.96,1.39-2.92c0.94-0.96,1.94-1.43,2.99-1.43   c1.07,0,2.08,0.45,3.04,1.34C677.44,528.88,677.93,529.88,677.93,530.98z"/>
	<path class="st5" d="M721.09,574.62c-2.93-2.93-4.4-6.51-4.4-10.74c0-2.28,0.43-4.64,1.29-7.08c0.86-2.44,2.02-4.55,3.47-6.34   c0.61-0.77,1.4-1.2,2.37-1.29c0.97-0.11,1.84,0.14,2.61,0.74c0.76,0.62,1.2,1.42,1.31,2.39c0.1,0.97-0.16,1.84-0.76,2.61   c-0.92,1.15-1.69,2.57-2.3,4.26c-0.59,1.69-0.89,3.27-0.91,4.73c0,2.26,0.77,4.17,2.32,5.72c2.02,2.02,4.86,3.04,8.51,3.04   c4.61,0,7.79-1.27,9.54-3.8c1.31-1.91,1.91-4.53,1.79-7.84c-0.1-3.25-0.85-6.76-2.27-10.52c-0.35-0.92-0.32-1.83,0.1-2.73   c0.4-0.88,1.06-1.49,1.98-1.84c0.91-0.35,1.81-0.32,2.7,0.1c0.89,0.4,1.51,1.06,1.87,1.98c1.67,4.5,2.58,8.75,2.73,12.77   c0.16,4.88-0.87,8.91-3.08,12.1c-1.55,2.25-3.6,3.95-6.17,5.09c-2.6,1.18-5.66,1.77-9.18,1.77   C728.99,579.74,724.49,578.03,721.09,574.62z M739.55,547.67c0,1.1-0.43,2.1-1.29,3.01c-0.86,0.88-1.81,1.32-2.85,1.32   c-1.07,0-2.22-0.43-3.44-1.29c-0.86-0.92-1.29-1.94-1.29-3.04c0-0.99,0.46-1.96,1.39-2.92c0.94-0.96,1.94-1.43,2.99-1.43   c1.07,0,2.08,0.45,3.04,1.34C739.07,545.57,739.55,546.57,739.55,547.67z"/>
	<path class="st5" d="M782.86,557.38c0.67,0.69,1,1.51,0.98,2.46c0,0.99-0.34,1.83-1.03,2.51s-1.36,1.03-2.03,1.03h-1.65   c-0.22,0.72-0.49,1.43-0.79,2.13c-1.02,2.38-2.46,4.56-4.33,6.55c-3.63,3.86-8.06,6.37-13.27,7.53c-0.26,0.06-0.51,0.1-0.77,0.1   c-0.81,0-1.55-0.26-2.2-0.77c-0.65-0.53-1.08-1.2-1.27-2.01c-0.21-0.96-0.05-1.85,0.48-2.68c0.53-0.83,1.27-1.35,2.22-1.55   c2.52-0.56,4.88-1.64,7.08-3.25c2.33-1.71,4.07-3.72,5.24-6.05h-0.81c-5.33,0-9.14-1.32-11.46-3.97c-0.86-0.96-1.48-2.07-1.87-3.35   c-0.29-0.92-0.45-1.89-0.48-2.89c-0.08-3.89,1.08-7.06,3.49-9.52c1.93-1.98,4.22-2.97,6.89-2.97c2.04,0,3.92,0.57,5.64,1.72   c1.72,1.16,3.19,2.82,4.4,4.97c1.53,2.79,2.41,5.77,2.63,8.94c0.41,0,0.69,0,0.81,0C781.58,556.42,782.27,556.77,782.86,557.38z    M765.64,548.63c-1,1.02-1.48,2.49-1.43,4.4c0.02,0.99,0.39,1.71,1.12,2.15c0.48,0.32,1.11,0.57,1.89,0.74   c1.02,0.24,2.25,0.36,3.68,0.36h2.13c-0.24-2.01-0.83-3.86-1.77-5.55c-1.12-1.96-2.38-2.94-3.78-2.94   C766.82,547.79,766.2,548.07,765.64,548.63z"/>
	<path class="st5" d="M801.11,556.33c0.99,0,1.83,0.34,2.51,1.03c0.68,0.69,1.03,1.52,1.03,2.51c0,0.97-0.34,1.81-1.03,2.51   c-0.69,0.69-1.52,1.03-2.51,1.03c-2.49,0-4.59-0.75-6.31-2.25c-0.32-0.24-0.63-0.51-0.93-0.81c-1.74,2.04-6.1,3.06-13.08,3.06   c-0.97,0-1.81-0.34-2.51-1.03c-0.68-0.7-1.03-1.54-1.03-2.51c0-0.99,0.34-1.83,1.03-2.51c0.7-0.69,1.54-1.03,2.51-1.03   c4.45-0.11,7.15-0.66,8.09-1.64c0.95-0.98,1.32-2.35,1.11-4.1c-0.06-0.51-0.12-1.07-0.17-1.67l-0.07-0.81l-0.07-0.79   c-0.05-0.68-0.09-1.17-0.12-1.46c-0.1-0.99,0.18-1.86,0.81-2.61c0.62-0.75,1.42-1.17,2.39-1.27c0.97-0.1,1.83,0.18,2.58,0.81   c0.77,0.62,1.19,1.42,1.27,2.39c0.03,0.33,0.08,0.86,0.14,1.58c0.29,3.67,0.72,6.18,1.32,7.53   C798.67,555.65,799.69,556.33,801.11,556.33z M782.19,574.84c-0.54-0.33-0.94-0.8-1.2-1.39c-0.35-0.8-0.38-1.6-0.07-2.42   c0.32-0.81,0.88-1.39,1.67-1.75c1.66-0.77,3.83-1.4,6.53-1.91c1.95-0.37,4.33-0.32,7.15,0.14c0.86,0.14,1.55,0.57,2.06,1.29   c0.51,0.7,0.69,1.48,0.55,2.34c-0.14,0.86-0.57,1.55-1.29,2.06c-0.7,0.51-1.48,0.69-2.34,0.55c-2.1-0.35-3.77-0.4-5-0.14   c-1.93,0.32-3.62,0.8-5.07,1.46c-0.42,0.17-0.84,0.26-1.29,0.26C783.27,575.34,782.7,575.17,782.19,574.84z"/>
	<path class="st5" d="M808.59,560.75c-2.28,1.77-4.77,2.65-7.46,2.65c-0.97,0-1.81-0.35-2.51-1.05c-0.69-0.69-1.03-1.51-1.03-2.49   c0-0.99,0.34-1.83,1.03-2.51c0.7-0.7,1.54-1.04,2.51-1.03c2.23-0.02,4.03-1.12,5.4-3.3c0.49-0.8,0.93-1.75,1.32-2.85   c0.14-0.42,0.29-0.86,0.43-1.34c0.06-0.19,0.12-0.39,0.17-0.6l0.1-0.29l0.07-0.26c0.24-0.92,0.77-1.63,1.6-2.13   c0.84-0.49,1.73-0.62,2.65-0.38c0.92,0.22,1.59,0.75,2.01,1.58c0.4,0.8,0.47,1.69,0.21,2.68c-0.05,0.22-0.14,0.55-0.26,0.98   l-0.14,0.53l-0.17,0.55c-0.24,0.89-0.38,1.63-0.43,2.2c-0.16,1.66,0.41,2.57,1.72,2.73c1.26,0.16,2.28-0.19,3.06-1.05   c1.16-1.32,2.1-3.95,2.8-7.89c0.16-0.96,0.64-1.71,1.44-2.27c0.8-0.56,1.67-0.76,2.63-0.6c0.96,0.16,1.71,0.64,2.25,1.43   c0.54,0.78,0.73,1.66,0.57,2.63c-0.08,0.51-0.14,0.92-0.19,1.22c-0.06,0.48-0.12,0.91-0.17,1.29c-0.1,0.97-0.1,1.79-0.02,2.46   c0.22,1.79,1.07,2.68,2.53,2.68c1.5,0,2.4-0.69,2.7-2.08c0.21-0.89,0.19-2.92-0.05-6.07c-0.08-0.94,0.18-1.78,0.79-2.51   c0.61-0.73,1.38-1.16,2.32-1.27c0.94-0.11,1.79,0.12,2.53,0.69c0.77,0.56,1.23,1.31,1.39,2.25c0.61,3.73,1.22,6.11,1.84,7.15   c0.41,0.65,0.95,1.12,1.6,1.41c0.62,0.25,1.44,0.4,2.46,0.43c1.02-0.03,1.87,0.3,2.56,1c0.7,0.69,1.05,1.51,1.05,2.49   c0,0.99-0.35,1.83-1.05,2.51c-0.69,0.7-1.54,1.06-2.56,1.08c-3.44-0.02-6.24-1.13-8.39-3.35c-0.14,0.19-0.3,0.38-0.48,0.55   c-1.72,1.87-3.96,2.8-6.72,2.8c-2.77,0-5.01-1-6.7-2.99l-0.14-0.17c-2.07,2.12-4.76,3.18-8.06,3.18   C812.54,563.43,810.14,562.54,808.59,560.75z"/>
	<path class="st5" d="M846.35,563.41c-0.97,0-1.81-0.34-2.51-1.03c-0.69-0.7-1.03-1.54-1.03-2.51c0-0.99,0.34-1.83,1.03-2.51   c0.7-0.69,1.54-1.03,2.51-1.03c2.63,0,4.54-0.11,5.74-0.33c1.69-0.32,2.81-0.94,3.37-1.87c0.14-0.22,0.23-0.62,0.26-1.2   c0.05-0.77-0.03-1.67-0.24-2.7c-0.4-2.1-1.16-4.32-2.3-6.65c-0.41-0.88-0.46-1.78-0.14-2.7c0.32-0.92,0.92-1.6,1.79-2.03   c0.89-0.43,1.8-0.48,2.73-0.14c0.92,0.32,1.59,0.92,2.01,1.79c0.21,0.42,0.41,0.85,0.6,1.29c0.25,0.59,0.5,1.18,0.74,1.77   c0.59,1.59,1.04,3.12,1.36,4.57c0.92,4.13,0.67,7.37-0.76,9.71c-1.5,2.44-3.83,4.06-7.01,4.88c-1.21,0.3-2.6,0.5-4.16,0.6   c-0.62,0.05-1.31,0.08-2.06,0.1H846.35z M857.85,531.79c0,1.1-0.43,2.1-1.29,3.01c-0.86,0.88-1.81,1.31-2.85,1.31   c-1.07,0-2.22-0.43-3.44-1.29c-0.86-0.92-1.29-1.94-1.29-3.04c0-0.99,0.46-1.96,1.39-2.92c0.94-0.96,1.94-1.43,2.99-1.43   c1.07,0,2.08,0.45,3.04,1.34C857.36,529.69,857.85,530.69,857.85,531.79z"/>
	<path class="st5" d="M876.43,563.31c-1.1-0.13-2.1-0.37-2.99-0.72c-1.16-0.48-2.16-1.16-2.99-2.03c-1.1-1.15-1.86-2.61-2.27-4.38   c-0.33-1.4-0.49-5.37-0.48-11.91v-2.25v-2.3c-0.02-1.71-0.04-3.21-0.07-4.52c-0.08-3.33-0.26-5.93-0.55-7.8   c-0.14-0.97,0.07-1.86,0.65-2.65c0.59-0.78,1.36-1.24,2.32-1.39c0.97-0.14,1.85,0.07,2.63,0.65c0.8,0.59,1.27,1.36,1.41,2.32   c0.32,2.1,0.53,4.92,0.62,8.44c0.03,1.39,0.06,2.98,0.07,4.78v7.84c0,1.18,0.01,2.18,0.02,3.01c0.05,2.18,0.14,3.56,0.26,4.14   c0.17,0.73,0.48,1.2,0.91,1.41c0.48,0.24,1.5,0.36,3.06,0.36c0.97,0,1.81,0.34,2.5,1.03s1.04,1.52,1.04,2.51   c0,0.97-0.35,1.81-1.04,2.5s-1.53,1.04-2.5,1.04C877.73,563.39,876.86,563.36,876.43,563.31z"/>
	<path class="st5" d="M879.06,563.41c-0.97,0-1.81-0.34-2.51-1.03c-0.69-0.7-1.03-1.54-1.03-2.51c0-0.99,0.34-1.83,1.03-2.51   c0.7-0.69,1.54-1.03,2.51-1.03c3.75,0,6.22-0.11,7.41-0.33c1.69-0.32,2.81-0.94,3.37-1.87c0.14-0.22,0.23-0.62,0.26-1.2   c0.05-0.77-0.03-1.67-0.24-2.7c-0.4-2.1-1.16-4.32-2.3-6.65c-0.41-0.88-0.46-1.78-0.14-2.7c0.32-0.92,0.92-1.6,1.79-2.03   c0.89-0.43,1.8-0.48,2.73-0.14c0.92,0.32,1.59,0.92,2.01,1.79c0.21,0.42,0.41,0.85,0.6,1.29c0.25,0.59,0.5,1.18,0.74,1.77   c0.59,1.59,1.04,3.12,1.36,4.57c0.92,4.13,0.67,7.37-0.76,9.71c-1.5,2.44-3.83,4.06-7.01,4.88c-1.21,0.3-2.6,0.5-4.16,0.6   c-0.62,0.05-1.47,0.08-2.53,0.1H879.06z M896.16,567.47c0.54,0.33,0.94,0.8,1.2,1.39c0.35,0.8,0.38,1.6,0.07,2.42   c-0.32,0.81-0.88,1.4-1.67,1.77c-1.66,0.75-3.83,1.38-6.53,1.89c-1.93,0.37-4.31,0.32-7.15-0.14c-0.86-0.14-1.55-0.57-2.06-1.29   c-0.51-0.7-0.69-1.48-0.55-2.34c0.14-0.86,0.57-1.55,1.29-2.06c0.7-0.51,1.48-0.69,2.34-0.55c2.1,0.35,3.77,0.4,5,0.14   c1.93-0.32,3.62-0.8,5.07-1.44c0.42-0.19,0.84-0.29,1.29-0.29C895.08,566.97,895.65,567.14,896.16,567.47z M892.12,577.35   c0.67,0.67,1.06,1.44,1.17,2.32c0.1,0.86-0.1,1.64-0.6,2.34c-0.13,0.17-0.27,0.34-0.43,0.5c-1.32,1.21-2.77,1.44-4.35,0.69   c-0.7-0.32-1.23-0.82-1.58-1.51c-0.37-0.7-0.48-1.44-0.33-2.22c0.22-1.35,0.92-2.28,2.1-2.77c0.48-0.27,1-0.41,1.55-0.41   C890.6,576.29,891.42,576.64,892.12,577.35z"/>
</g>
</svg>