<?xml version="1.0" standalone="no"?>
<!DOCTYPE svg PUBLIC "-//W3C//DTD SVG 20010904//EN"
 "http://www.w3.org/TR/2001/REC-SVG-20010904/DTD/svg10.dtd">
<svg version="1.0" xmlns="http://www.w3.org/2000/svg"
 width="822.000000pt" height="822.000000pt" viewBox="0 0 822.000000 822.000000"
 preserveAspectRatio="xMidYMid meet">
<metadata>
Created by potrace 1.14, written by Peter Selinger 2001-2017
</metadata>
<g transform="translate(0.000000,822.000000) scale(0.100000,-0.100000)"
fill="#000000" stroke="none">
<path d="M3585 8196 c-31 -15 -92 -30 -160 -39 -133 -19 -136 -19 -233 -52
-246 -85 -397 -203 -396 -311 0 -48 16 -72 60 -90 60 -25 182 9 231 65 25 29
25 27 28 59 3 31 -12 38 -20 10 -13 -41 -57 -90 -98 -108 -96 -43 -173 20
-134 111 58 133 344 278 579 294 20 2 41 6 47 10 25 15 8 -21 -31 -65 -61 -68
-102 -140 -164 -290 -30 -72 -66 -150 -80 -173 -32 -52 -114 -137 -131 -137
-7 0 -13 -4 -13 -8 0 -9 -50 -29 -91 -36 -33 -5 -69 18 -69 44 0 21 43 70 63
71 38 2 78 19 46 19 -32 0 -96 -23 -125 -46 -67 -50 -47 -114 37 -118 24 -2
53 1 64 5 147 53 208 103 297 243 52 83 53 84 108 96 76 17 236 77 285 108
147 93 199 179 140 238 -37 37 -77 52 -185 70 -19 3 -36 7 -38 9 -2 1 12 12
30 24 45 28 15 26 -47 -3z m116 -66 c65 -18 96 -78 68 -133 -21 -42 -110 -115
-187 -155 -78 -40 -210 -87 -219 -78 -7 7 117 242 168 321 l42 63 45 -4 c25
-2 62 -9 83 -14z"/>
<path d="M4623 8056 c-33 -11 -92 -61 -130 -109 -15 -20 -31 -28 -57 -29 -36
-1 -41 -18 -5 -18 10 0 19 -2 19 -4 0 -2 -16 -30 -35 -62 -46 -76 -61 -127
-49 -162 12 -35 61 -50 104 -32 35 15 130 102 130 120 0 7 -21 -9 -47 -35 -54
-53 -91 -75 -118 -71 -27 4 -29 19 -11 73 13 36 26 54 55 72 22 13 56 38 76
56 30 28 42 32 73 28 38 -5 36 11 -1 19 -16 3 -14 8 13 38 49 53 60 73 54 97
-7 27 -30 33 -71 19z m47 -38 c0 -7 -18 -34 -41 -60 -28 -33 -48 -48 -65 -48
-13 0 -24 4 -24 8 0 5 23 32 51 60 50 51 79 65 79 40z m-151 -169 c-24 -20
-46 -36 -48 -33 -2 2 8 21 23 43 21 30 32 38 48 33 19 -5 17 -9 -23 -43z"/>
<path d="M5432 7928 c-102 -15 -158 -64 -149 -131 10 -73 101 -127 207 -123
61 2 100 23 100 54 0 13 -2 13 -17 0 -45 -38 -143 -47 -193 -17 -39 24 -62 74
-48 105 20 43 115 78 208 77 89 -1 211 -23 280 -50 8 -3 20 -7 26 -8 38 -9
249 -123 241 -131 -2 -2 -21 -6 -42 -8 -110 -15 -165 -35 -370 -137 -99 -49
-196 -92 -215 -96 -74 -15 -193 -9 -234 12 -50 25 -63 58 -36 85 25 25 65 25
112 2 21 -11 34 -14 32 -7 -7 16 -101 48 -142 48 -42 0 -84 -40 -75 -73 15
-57 148 -112 268 -111 68 0 216 35 276 65 22 11 31 10 64 -7 158 -81 381 -124
495 -95 104 27 104 128 0 240 -22 24 -40 45 -40 48 0 4 16 4 36 2 55 -7 33 14
-23 23 -43 6 -162 68 -171 88 -2 4 -12 7 -23 7 -10 0 -19 3 -19 8 0 24 -278
115 -391 128 -86 10 -101 10 -157 2z m742 -290 c42 -41 76 -97 76 -123 0 -28
-26 -62 -60 -80 -49 -26 -220 -24 -290 2 -8 4 -28 8 -45 10 -16 3 -34 8 -40
13 -5 4 -27 13 -47 19 -21 7 -40 16 -43 21 -7 12 360 165 408 169 4 1 23 -14
41 -31z"/>
<path d="M4042 7884 c-116 -69 -153 -217 -60 -242 72 -19 155 27 208 116 28
47 6 39 -29 -10 -16 -24 -38 -50 -48 -59 -22 -18 -71 -36 -90 -33 -7 1 -17 2
-22 3 -13 2 -21 43 -14 69 3 13 16 25 32 28 78 19 149 65 164 106 17 49 -73
62 -141 22z m112 -16 c-3 -13 -13 -30 -21 -40 -17 -20 -110 -61 -126 -55 -6 2
15 29 47 60 39 39 65 57 82 57 22 0 24 -3 18 -22z"/>
<path d="M2159 7311 c-23 -18 -24 -26 -25 -138 -2 -174 -16 -224 -54 -203 -25
13 -40 82 -40 188 -1 29 2 57 6 63 10 17 -28 -6 -50 -30 -16 -18 -18 -31 -12
-93 3 -39 11 -75 17 -79 6 -3 10 -9 9 -13 -1 -4 0 -20 3 -36 7 -31 39 -47 74
-36 35 11 64 81 67 159 2 62 19 15 32 -88 3 -25 -7 -43 -54 -101 -97 -118
-125 -204 -83 -255 17 -22 20 -22 57 -8 28 11 49 30 76 69 45 68 50 91 57 272
1 15 7 33 15 40 36 37 68 123 71 190 2 38 -1 71 -6 74 -5 3 -9 -12 -10 -33 -1
-83 -8 -113 -35 -162 -15 -28 -30 -51 -34 -51 -4 0 -13 26 -20 58 -7 31 -16
71 -20 89 -5 18 -7 57 -7 88 1 30 -1 55 -4 55 -4 0 -17 -9 -30 -19z m25 -481
c-14 -87 -36 -147 -62 -166 -60 -46 -90 33 -46 120 8 17 36 58 62 92 56 74 64
66 46 -46z"/>
<path d="M6191 7165 c-57 -18 -101 -60 -101 -97 0 -39 36 -60 102 -58 73 2 75
2 52 -15 -25 -17 -22 -59 7 -78 28 -20 200 -9 214 13 5 9 -61 3 -76 -6 -13 -8
-106 -7 -119 1 -34 21 82 79 167 84 7 1 10 8 7 16 -4 9 0 15 10 15 43 0 -4 79
-65 111 -50 25 -141 32 -198 14z m205 -49 c36 -8 65 -49 46 -68 -8 -8 -15 -8
-25 0 -15 13 -57 12 -74 -1 -7 -5 -13 -7 -13 -4 0 2 -27 -1 -59 -8 -71 -15
-118 -12 -137 7 -12 12 -11 17 8 35 44 40 165 59 254 39z"/>
<path d="M1687 6896 c-41 -44 -47 -48 -41 -24 12 52 -35 90 -66 53 -10 -12 -7
-25 18 -72 42 -82 63 -144 77 -227 4 -26 11 -43 15 -36 9 14 -5 92 -30 167
l-20 58 26 23 c15 13 31 21 37 19 6 -2 18 -34 27 -71 9 -37 23 -74 31 -82 26
-25 55 -24 80 2 20 21 23 35 23 92 0 74 -9 122 -24 122 -6 0 -6 -9 -1 -22 4
-13 9 -56 10 -96 2 -71 2 -73 -20 -70 -17 2 -26 15 -40 58 -10 30 -20 71 -23
91 -4 19 -12 43 -19 51 -10 14 -18 9 -60 -36z"/>
<path d="M6544 6788 c-49 -11 -96 -20 -105 -21 -22 -2 -14 -21 14 -35 14 -8
40 -9 72 -4 54 8 154 0 198 -17 39 -15 36 -43 -5 -40 -89 6 -147 -28 -131 -77
16 -48 52 -66 135 -68 41 -1 84 1 94 5 24 10 26 9 -84 13 -90 3 -111 10 -112
39 0 21 112 46 212 47 52 0 41 20 -34 60 -58 31 -112 50 -150 53 -10 1 -18 5
-18 10 0 5 32 7 70 5 39 -2 70 0 70 3 0 3 -9 15 -21 28 -25 27 -73 27 -205 -1z"/>
<path d="M1366 6549 c-47 -37 -71 -95 -69 -174 1 -79 3 -88 26 -132 21 -39 62
-72 85 -68 9 2 22 4 28 4 30 2 45 111 23 168 l-10 28 25 -24 c48 -46 101 -6
97 74 -3 55 -25 138 -39 143 -8 2 -6 -14 4 -49 17 -57 23 -133 11 -145 -20
-20 -81 80 -93 154 -4 23 -12 25 -30 7 -17 -16 -22 -74 -9 -96 17 -26 41 -142
38 -175 -7 -65 -41 -67 -72 -5 -21 41 -39 118 -40 174 -2 38 24 106 40 108 5
1 14 2 19 3 6 0 10 5 11 11 1 18 -18 16 -45 -6z"/>
<path d="M6805 6366 c-21 -31 -15 -63 20 -104 14 -17 25 -34 25 -39 0 -18 55
-62 95 -75 42 -15 144 -24 133 -13 -4 4 -40 13 -82 20 -69 12 -125 38 -126 58
0 5 8 6 18 3 60 -18 75 -16 109 20 18 20 33 41 33 48 0 45 85 60 106 19 12
-25 26 -20 16 5 -17 46 -64 63 -190 67 -42 1 -91 6 -109 10 -27 6 -34 3 -48
-19z m224 -15 c18 -1 -53 -65 -97 -86 -45 -22 -82 -13 -82 20 0 14 4 25 8 25
5 0 15 11 22 24 13 25 26 27 149 17z m-184 -28 c-4 -10 -8 -23 -8 -30 0 -6 -6
-9 -13 -6 -13 5 -13 20 -1 41 12 19 30 15 22 -5z"/>
<path d="M921 6296 c-36 -43 -53 -165 -36 -256 17 -93 59 -224 122 -378 3 -7
-32 25 -78 72 -130 133 -197 157 -235 83 -21 -38 -27 -159 -12 -214 12 -46 82
-191 115 -240 13 -19 22 -37 20 -40 -3 -2 -24 14 -48 37 -52 48 -134 90 -169
85 -14 -2 -28 -4 -31 -4 -15 -2 -62 -58 -76 -91 -17 -41 -20 -53 -29 -129 -38
-310 127 -706 298 -713 95 -3 166 102 172 257 3 59 -18 171 -36 192 -6 7 -8
13 -4 13 8 0 -51 95 -67 108 -35 29 -82 19 -104 -23 -15 -27 -27 -125 -15
-125 5 0 9 6 10 13 6 79 29 119 63 110 11 -3 34 -20 51 -37 100 -99 114 -311
27 -401 -25 -25 -37 -30 -77 -29 -134 2 -252 191 -300 479 -23 142 16 301 76
306 45 4 58 3 77 -6 68 -35 129 -86 278 -236 92 -93 169 -169 171 -169 2 0 6
9 9 20 9 36 -9 74 -60 126 -146 149 -234 276 -306 444 -41 95 -50 185 -24 228
33 52 212 -87 349 -271 32 -43 62 -86 67 -95 8 -13 12 -14 25 -3 26 22 18 62
-25 126 -75 112 -177 334 -195 428 -2 10 -6 27 -9 38 -14 44 -13 184 1 207 23
35 46 14 110 -101 90 -161 134 -219 194 -256 39 -23 71 -27 103 -10 25 13 77
66 71 72 -3 2 2 10 11 17 8 7 15 19 15 27 0 8 -15 -5 -32 -28 -37 -48 -56 -54
-108 -33 -65 26 -144 125 -220 277 -29 57 -62 110 -73 116 -29 19 -54 21 -66
7z"/>
<path d="M3540 5954 c-8 -3 -58 -22 -110 -42 -52 -20 -97 -37 -100 -37 -3 -1
-16 -6 -30 -12 -14 -6 -56 -23 -95 -38 -38 -15 -83 -33 -100 -40 -16 -7 -51
-20 -77 -30 -25 -9 -56 -27 -68 -40 -19 -20 -20 -24 -6 -38 15 -14 22 -14 79
4 65 22 86 29 127 47 61 27 243 96 333 127 93 32 105 33 215 30 131 -3 126 -2
347 -55 150 -35 226 -52 250 -55 6 -1 24 -4 40 -8 40 -9 92 -17 135 -22 19 -2
55 -6 80 -9 68 -9 136 -15 234 -21 118 -8 146 -23 146 -75 0 -29 -36 -56 -86
-64 -86 -15 -350 -29 -560 -29 -119 -1 -135 2 -170 22 -53 32 -148 32 -324 1
-30 -5 -73 -12 -95 -15 -96 -13 -229 -45 -251 -60 -21 -13 -23 -19 -13 -31 14
-17 57 -14 254 15 74 11 95 15 165 26 14 2 45 7 70 10 25 4 64 10 88 15 40 7
44 6 72 -27 57 -65 31 -116 -81 -161 -30 -12 -67 -27 -84 -33 -16 -7 -32 -13
-35 -14 -17 -6 -62 -25 -190 -83 -218 -98 -238 -102 -522 -106 -203 -3 -255
-13 -227 -42 8 -7 25 -15 39 -18 14 -2 25 -5 25 -6 0 -8 372 -6 415 2 59 10
206 63 308 109 34 16 65 29 68 29 3 0 25 9 49 20 25 11 79 34 120 49 143 55
214 114 220 181 1 17 4 32 7 35 2 2 123 7 269 10 145 3 289 8 319 11 67 7 145
42 185 84 25 26 30 39 29 79 -1 99 -45 125 -229 137 -110 7 -147 10 -155 14
-3 1 -9 2 -13 1 -4 -1 -38 4 -75 10 -37 6 -80 13 -97 15 -16 3 -77 14 -135 25
-58 12 -114 23 -126 25 -11 2 -65 15 -120 29 -54 15 -109 28 -121 31 -13 2
-35 6 -50 10 -39 7 -325 14 -343 8z"/>
<path d="M7044 5935 c-48 -48 7 -122 114 -155 74 -23 72 -23 72 -11 0 6 -28
18 -61 27 -63 18 -119 55 -119 80 0 17 30 32 55 27 11 -2 36 -5 55 -7 19 -2
58 -7 87 -11 l52 -6 -9 32 c-5 17 -11 34 -14 36 -2 2 -50 6 -106 7 -96 3 -105
2 -126 -19z"/>
<path d="M7327 5943 c-9 -20 10 -70 30 -77 18 -7 42 9 39 27 -7 42 -55 76 -69
50z"/>
<path d="M7198 5565 c-16 -9 -28 -19 -29 -23 0 -4 -2 -15 -4 -25 -4 -24 13
-77 33 -100 10 -11 15 -33 14 -54 -5 -67 41 -129 129 -173 44 -23 49 -24 49
-10 0 5 -19 19 -43 30 -50 23 -116 85 -118 109 -2 19 2 45 6 49 2 2 20 -9 39
-25 20 -15 39 -28 43 -29 5 0 21 -6 36 -12 39 -16 61 -15 86 6 44 35 31 116
-28 181 -66 74 -158 106 -213 76z m132 -79 c47 -22 84 -55 103 -92 14 -27 14
-34 2 -51 -17 -25 -54 -24 -114 3 -26 11 -37 21 -29 25 9 6 10 16 3 35 -11 31
-38 39 -56 18 -10 -13 -15 -12 -30 5 -22 23 -25 67 -6 75 21 9 91 0 127 -18z"/>
<path d="M4279 5039 c-86 -13 -156 -72 -257 -216 -66 -95 -73 -99 -257 -133
-158 -30 -248 -51 -263 -63 -10 -8 -12 -32 -7 -96 3 -47 8 -98 10 -113 3 -16
7 -40 9 -55 25 -192 69 -232 301 -268 184 -29 174 -26 173 -53 0 -9 3 -42 7
-72 3 -30 8 -71 10 -90 3 -19 7 -60 10 -90 6 -57 25 -178 30 -195 15 -49 19
-56 34 -53 13 3 16 18 16 88 0 47 -4 114 -8 150 -4 36 -10 85 -12 110 -3 25
-7 59 -10 75 -2 17 -7 60 -11 97 -7 73 -6 72 -79 83 -22 3 -80 13 -130 21 -49
9 -103 18 -120 21 -16 3 -38 9 -47 14 -10 5 -18 7 -18 3 0 -4 -11 2 -24 15
-23 22 -40 66 -51 131 -3 19 -7 46 -10 60 -10 55 -15 159 -7 164 5 3 19 7 33
10 64 12 206 39 224 42 11 2 36 7 55 10 94 16 120 34 182 124 38 54 103 135
140 173 l27 27 215 3 215 2 31 -30 c18 -16 39 -43 47 -59 34 -65 86 -256 74
-273 -3 -6 -53 -19 -109 -31 -119 -24 -156 -45 -197 -111 -77 -125 -100 -153
-141 -177 -62 -36 -96 -80 -89 -113 3 -14 8 -38 10 -52 9 -48 35 -99 71 -139
47 -51 127 -79 279 -95 33 -4 63 -10 67 -13 9 -9 14 -47 33 -229 10 -105 43
-157 64 -102 13 37 -1 256 -25 371 -6 32 -37 40 -184 53 -82 7 -151 29 -178
58 -26 27 -62 111 -62 143 0 16 9 28 29 39 49 25 83 61 151 163 76 113 83 117
208 136 15 3 47 7 72 11 68 11 109 39 170 117 91 117 87 113 93 81 3 -16 21
-84 40 -153 42 -149 94 -348 101 -381 2 -13 15 -69 29 -124 14 -55 35 -145 47
-200 57 -263 79 -330 101 -308 24 24 21 59 -16 233 -3 14 -7 34 -10 45 -10 51
-45 205 -55 245 -7 25 -14 56 -16 70 -3 14 -8 34 -11 45 -3 11 -7 29 -9 40 -2
11 -22 90 -44 175 -23 85 -43 162 -45 170 -9 43 -29 114 -52 188 -36 113 -49
111 -162 -23 -40 -47 -76 -85 -81 -85 -5 0 -14 19 -20 43 -43 169 -94 274
-153 315 -26 17 -53 23 -118 27 -140 10 -271 11 -320 4z"/>
<path d="M7260 5008 c5 -18 22 -42 37 -53 54 -38 138 -130 163 -177 31 -60 18
-80 -25 -40 -38 36 -77 59 -92 57 -7 -2 -19 -3 -26 -4 -28 -2 -38 -54 -23
-117 8 -34 123 -164 145 -164 8 0 -19 34 -58 75 -56 59 -71 82 -71 105 0 25 4
30 24 30 13 0 35 -9 49 -20 14 -11 28 -20 32 -20 3 0 12 -6 19 -12 58 -56 98
-89 103 -84 8 8 -23 118 -46 165 -20 42 -44 84 -51 91 -3 3 -14 16 -25 29
l-20 24 24 -13 c13 -6 43 -32 67 -56 24 -23 46 -39 48 -35 11 18 -15 101 -32
101 -4 0 -18 10 -32 23 -14 12 -43 33 -65 46 -65 39 -143 81 -148 81 -3 0 -2
-15 3 -32z"/>
<path d="M590 4303 c-130 -44 -210 -169 -197 -306 16 -177 207 -301 375 -246
199 65 267 317 128 471 -73 81 -205 116 -306 81z"/>
<path d="M7450 4303 c-131 -45 -207 -158 -197 -294 16 -242 295 -355 482 -196
17 14 44 49 60 79 26 46 30 63 30 133 0 69 -4 88 -29 135 -32 62 -71 99 -136
131 -57 27 -149 33 -210 12z"/>
<path d="M704 3540 c-29 -12 -70 -63 -86 -107 -7 -22 -13 -77 -13 -128 1 -84
3 -95 40 -170 43 -85 105 -145 150 -145 43 0 69 32 71 88 2 30 -3 58 -11 69
-12 16 -13 12 -9 -34 5 -47 3 -53 -19 -68 -31 -20 -63 -13 -108 25 -77 63
-115 190 -90 297 12 49 50 102 74 104 7 0 23 2 36 5 33 6 122 -37 161 -77 88
-92 166 -213 214 -331 75 -189 12 -270 -181 -233 -127 24 -304 102 -391 172
-47 39 -59 31 -48 -31 8 -41 9 -42 201 -141 83 -43 162 -86 177 -96 14 -11 29
-19 32 -19 9 0 205 -128 221 -143 7 -7 19 -26 28 -43 12 -24 13 -33 3 -46 -19
-26 -53 -34 -156 -37 -112 -3 -200 16 -309 65 -40 19 -78 31 -83 28 -12 -8 -1
-54 19 -76 8 -9 40 -27 71 -39 31 -13 86 -38 122 -56 36 -18 68 -33 72 -33 15
0 226 -104 289 -143 71 -43 110 -90 90 -110 -11 -11 -120 -13 -171 -2 -45 9
-154 18 -210 18 -101 0 -151 -48 -144 -137 4 -47 37 -140 47 -130 3 4 -1 20
-9 35 -19 37 -21 94 -4 114 32 38 72 48 185 48 61 -1 128 -4 150 -8 120 -19
196 -10 216 26 18 35 -30 98 -119 155 -51 33 -316 171 -357 186 -11 4 7 5 40
2 65 -6 178 -6 210 0 11 3 25 5 31 5 5 1 20 10 32 21 26 25 29 68 6 112 -18
36 -92 118 -106 118 -5 0 -24 11 -41 24 -18 13 -62 40 -99 61 -38 20 -68 40
-68 44 0 5 23 2 52 -5 149 -39 243 9 252 127 7 94 -52 259 -151 419 -107 174
-221 256 -309 220z"/>
<path d="M7468 3544 c-4 -5 14 -29 38 -54 24 -24 44 -50 44 -57 0 -7 4 -13 9
-13 8 0 21 -27 34 -70 2 -8 1 -23 -2 -33 -6 -16 -8 -16 -39 0 -18 10 -67 52
-109 93 l-76 75 6 -52 c6 -49 44 -173 81 -258 l17 -40 -28 34 c-15 19 -40 51
-54 72 -25 36 -27 37 -33 16 -3 -12 -6 -31 -6 -43 0 -18 74 -113 193 -248 l34
-39 1 33 c0 18 3 34 6 37 5 5 -28 59 -44 73 -11 10 -68 105 -89 150 -40 84
-38 156 2 98 45 -66 100 -105 124 -90 38 25 46 118 14 180 -25 50 -115 149
-123 136z"/>
<path d="M3723 3062 c-48 -25 -73 -43 -73 -54 0 -25 11 -23 83 13 70 35 99 58
91 70 -8 14 -25 10 -101 -29z"/>
<path d="M3840 3053 c-50 -37 -195 -113 -216 -113 -8 0 -15 -4 -15 -10 -5 -36
-2 -46 17 -54 21 -9 94 -147 94 -177 0 -9 -7 -22 -16 -30 -15 -12 -33 -13
-219 -6 l-60 2 0 -30 c0 -24 8 -35 48 -61 65 -43 65 -42 26 -58 -75 -31 -171
-20 -194 24 -15 28 -13 49 9 136 17 64 8 80 -40 75 -20 -2 -51 -114 -52 -191
-1 -40 35 -87 87 -113 86 -42 221 -21 276 44 24 30 24 49 -1 79 -11 13 -3 15
63 17 61 1 79 5 97 22 28 26 31 26 69 -1 25 -18 45 -22 97 -22 112 0 158 42
146 132 -9 68 -34 112 -62 112 -31 0 -39 -20 -24 -64 28 -85 20 -105 -42 -110
-73 -6 -111 31 -186 180 l-31 61 47 22 c53 26 153 90 165 106 12 17 3 47 -18
55 -14 5 -33 -2 -65 -27z"/>
<path d="M4117 2976 c-11 -11 -13 -45 -10 -168 3 -89 9 -163 16 -178 42 -87
340 -41 465 73 24 23 29 49 10 65 -23 19 -196 59 -239 56 -67 -5 -125 -78 -95
-119 13 -18 56 -13 56 6 0 5 9 18 19 28 16 16 26 18 58 11 21 -5 39 -9 41 -9
24 -1 71 -15 67 -21 -6 -10 -117 -46 -170 -55 -68 -11 -135 -12 -144 -1 -5 6
-10 56 -10 111 -2 86 -5 162 -10 187 0 4 -10 12 -20 18 -15 7 -23 6 -34 -4z"/>
<path d="M6316 2977 c-14 -10 -16 -32 -12 -168 5 -203 13 -219 118 -225 126
-6 184 35 176 124 -9 95 -44 140 -87 113 -12 -8 -13 -16 -2 -52 21 -70 22 -86
5 -100 -15 -13 -119 -18 -130 -6 -3 3 -7 61 -8 129 -2 67 -4 135 -5 150 -1 34
-31 53 -55 35z"/>
<path d="M4326 2928 c-18 -25 -7 -53 23 -61 40 -10 71 40 42 67 -24 22 -47 20
-65 -6z"/>
<path d="M3930 2919 c-15 -26 -7 -47 22 -58 41 -16 76 37 46 67 -19 19 -56 14
-68 -9z"/>
<path d="M6128 2923 c-19 -23 -13 -48 15 -60 27 -12 44 -7 57 18 24 43 -39 80
-72 42z"/>
<path d="M7400 2840 c0 -5 6 -15 13 -22 49 -54 89 -140 82 -179 -8 -43 -17
-60 -28 -56 -7 2 -12 8 -12 13 0 17 -34 79 -58 106 -86 99 -170 12 -139 -142
20 -95 67 -167 124 -189 22 -8 30 -6 52 14 14 13 26 28 27 32 0 4 3 17 5 28 3
11 5 37 5 57 0 20 9 55 20 77 10 22 19 55 19 74 0 33 -17 97 -29 107 -4 3 -17
22 -31 42 -24 37 -50 56 -50 38z m-15 -173 c38 -44 43 -62 20 -71 -33 -12 -12
-68 26 -70 28 -1 35 -28 20 -69 -14 -36 -34 -34 -76 6 -97 92 -129 272 -43
249 10 -2 34 -23 53 -45z"/>
<path d="M6171 2821 c-17 -17 -19 -26 -12 -40 6 -10 14 -37 20 -59 11 -50 1
-62 -58 -66 -53 -4 -72 11 -85 65 -10 40 -14 44 -41 44 -28 0 -30 -2 -32 -44
-3 -53 -19 -77 -40 -59 -9 7 -13 26 -11 51 2 29 -2 43 -17 53 -16 12 -21 12
-37 -3 -10 -9 -18 -26 -18 -39 0 -29 -43 -80 -59 -70 -8 5 -10 22 -6 50 5 33
3 45 -11 57 -21 17 -17 17 -37 0 -10 -7 -17 -20 -17 -28 0 -31 -40 -73 -70
-73 -30 0 -31 3 -46 85 -5 31 -21 55 -35 55 -22 0 -40 -35 -35 -69 6 -45 -2
-59 -40 -70 -29 -8 -67 -1 -64 12 10 49 -61 137 -110 137 -48 0 -82 -22 -101
-64 -40 -89 11 -159 120 -165 24 -1 -39 -60 -89 -84 -30 -15 -45 -28 -45 -41
0 -76 159 -5 210 94 9 17 23 30 33 31 47 2 79 7 102 16 17 7 34 6 57 -4 34
-14 79 -11 96 6 7 7 17 6 31 -1 32 -18 76 -18 114 -2 27 11 38 11 49 3 20 -17
64 -18 96 -2 22 11 32 12 42 3 18 -15 110 -20 151 -9 38 11 71 46 78 82 7 38
-17 125 -42 149 l-20 20 -21 -21z m-855 -89 c6 -4 19 -21 27 -39 19 -35 12
-42 -35 -35 -35 5 -45 24 -30 58 12 25 20 29 38 16z"/>
<path d="M2415 2810 c-3 -10 -1 -28 5 -39 6 -12 13 -39 16 -61 6 -39 5 -40
-28 -47 -18 -4 -39 -7 -45 -6 -7 0 -21 1 -32 2 -14 1 -20 11 -23 45 -13 115
-120 139 -187 41 -17 -26 -27 -32 -39 -26 -21 12 -49 2 -55 -19 -8 -31 1 -226
12 -268 12 -43 35 -59 58 -41 11 9 12 32 7 108 -3 53 -6 98 -6 101 -1 18 6 19
40 4 44 -19 247 -28 295 -12 18 5 43 22 56 36 20 23 23 33 18 82 -6 75 -30
120 -62 120 -15 0 -26 -7 -30 -20z m-173 -132 c-3 -15 -12 -19 -36 -17 -17 2
-34 4 -38 6 -13 6 14 51 36 61 17 7 23 5 32 -11 6 -11 9 -29 6 -39z"/>
<path d="M2910 2803 c-27 -10 -52 -38 -76 -85 -31 -61 -56 -76 -84 -48 -11 11
-20 31 -20 44 0 13 -7 29 -15 36 -17 14 -55 4 -56 -16 0 -8 -1 -33 -1 -56 -1
-69 -25 -119 -81 -172 -55 -54 -63 -69 -41 -87 33 -27 114 32 159 117 26 48
27 49 75 49 31 0 55 6 67 17 16 15 21 16 34 4 8 -8 30 -19 51 -24 64 -17 118
30 118 103 0 80 -67 141 -130 118z m60 -97 c9 -24 -4 -56 -23 -56 -7 0 -21 6
-31 13 -16 12 -17 17 -6 38 23 44 44 46 60 5z"/>
<path d="M4962 2783 c-21 -8 -34 -41 -23 -62 23 -42 81 -26 81 23 0 24 -34 47
-58 39z"/>
<path d="M5066 2742 c-3 -10 0 -42 8 -71 14 -55 11 -117 -7 -139 -17 -21 -63
-42 -92 -42 -43 0 -93 29 -104 60 -10 31 1 94 19 105 18 11 11 62 -7 67 -29 8
-42 -2 -64 -43 -28 -56 -32 -125 -8 -170 28 -55 67 -79 143 -86 114 -10 191
47 202 153 5 52 -19 164 -39 176 -21 13 -45 9 -51 -10z"/>
<path d="M2374 2534 c-21 -8 -40 -14 -41 -14 -2 0 -3 -8 -3 -19 0 -22 25 -45
40 -36 5 3 38 9 72 13 50 6 63 11 66 26 2 10 0 22 -6 28 -16 16 -85 17 -128 2z"/>
<path d="M5487 2537 c-58 -14 -75 -68 -21 -68 20 0 94 9 131 17 16 3 21 10 18
25 -3 12 -7 24 -9 27 -10 9 -81 9 -119 -1z"/>
<path d="M6545 2539 c-16 -5 -47 -8 -68 -7 -72 3 -77 -58 -6 -66 39 -4 119 17
130 35 8 13 -6 50 -19 48 -4 0 -20 -5 -37 -10z"/>
<path d="M6491 2428 c-16 -41 39 -64 62 -27 15 24 1 49 -28 49 -17 0 -28 -7
-34 -22z"/>
<path d="M7034 2243 c-13 -30 -12 -52 4 -65 12 -10 18 -8 33 11 10 12 17 32
15 44 -4 28 -40 35 -52 10z"/>
<path d="M7230 2228 c0 -3 16 -40 36 -82 29 -61 35 -84 31 -113 -6 -37 -23
-56 -40 -46 -5 3 -38 50 -73 104 -35 55 -65 99 -68 99 -2 0 -11 -16 -21 -35
-16 -34 -16 -36 4 -53 12 -9 42 -48 69 -87 40 -59 52 -70 76 -70 67 0 91 103
45 200 -21 45 -59 98 -59 83z"/>
<path d="M6884 1827 c-6 -7 -15 -26 -21 -43 -9 -26 -5 -45 28 -133 22 -57 39
-115 39 -130 1 -83 84 -72 131 17 13 25 31 57 39 71 9 15 15 49 15 81 -1 55
-30 150 -46 150 -11 0 -13 7 15 -79 23 -72 25 -125 5 -146 -8 -8 -10 -1 -9 30
0 3 -6 18 -15 34 -16 32 -43 45 -90 43 -74 -3 -114 43 -81 93 17 26 10 34 -10
12z m152 -204 c18 -24 18 -62 -2 -70 -20 -8 -99 9 -99 22 -1 6 -11 36 -23 68
-12 32 -22 60 -22 62 0 9 133 -66 146 -82z m-2 -108 c-7 -16 -14 -18 -38 -9
-26 10 -18 24 14 24 22 0 28 -4 24 -15z"/>
<path d="M1023 1749 c-39 -12 -57 -40 -48 -79 8 -37 47 -65 109 -81 41 -10 46
-13 30 -22 -60 -33 -43 -99 31 -127 37 -14 172 -24 160 -12 -5 6 -37 13 -70
15 -33 3 -67 7 -76 9 -20 5 -49 27 -49 38 0 13 67 32 107 30 21 -1 53 -2 71
-1 l33 1 -18 25 c-22 30 -33 34 -107 39 -118 10 -205 50 -190 89 8 22 30 28
84 22 56 -6 180 -44 180 -56 0 -5 6 -9 13 -9 17 0 40 -41 35 -65 -2 -10 3 -20
10 -22 16 -6 16 29 -2 70 -16 40 -76 94 -131 118 -52 23 -130 31 -172 18z"/>
<path d="M6663 1410 c-23 -52 -46 -143 -48 -182 -1 -31 -15 -51 -16 -22 0 10
-2 28 -5 39 -2 11 -5 35 -6 53 0 17 -3 32 -4 32 -2 0 -13 -10 -24 -22 -19 -20
-21 -30 -15 -78 4 -30 8 -61 10 -70 2 -8 11 -55 21 -104 l17 -89 23 27 c20 22
23 34 17 74 -9 74 -6 194 6 225 11 29 32 33 37 6 15 -93 31 -128 59 -135 52
-13 95 42 95 122 0 48 -17 122 -32 139 -12 13 -10 -33 2 -56 15 -26 15 -122 0
-148 -10 -19 -14 -20 -27 -9 -16 13 -42 67 -49 101 -2 10 -6 27 -9 37 -3 10
-8 27 -10 37 -2 10 -8 29 -13 43 -10 24 -10 24 -29 -20z"/>
<path d="M1575 1320 c-63 -30 -150 -48 -220 -47 -62 2 -82 -5 -51 -16 21 -8
147 0 186 12 32 10 37 9 58 -14 12 -15 22 -33 22 -41 0 -8 -10 -14 -22 -15
-13 0 -30 -2 -38 -4 -8 -1 -33 -6 -55 -9 -52 -8 -77 -37 -64 -74 5 -15 19 -34
32 -41 30 -19 144 -23 182 -6 29 14 28 14 -20 8 -61 -8 -96 -7 -130 1 -61 15
-3 59 94 71 60 7 101 20 101 32 0 4 -19 27 -42 51 -34 35 -39 43 -23 42 40 -4
55 0 65 21 9 15 8 24 -1 35 -15 18 -25 17 -74 -6z"/>
<path d="M5633 1002 c-22 -31 -43 -46 -95 -66 -120 -47 -303 -157 -405 -243
-114 -96 -129 -223 -29 -257 101 -35 239 50 228 138 -3 28 -5 26 -32 -30 -33
-67 -68 -94 -127 -94 -39 0 -82 27 -84 53 -8 89 65 179 236 291 85 55 254 141
262 132 3 -2 -3 -29 -13 -58 -10 -29 -19 -57 -20 -63 -1 -5 -4 -21 -7 -35 -11
-51 -28 -140 -32 -167 -31 -225 -98 -343 -230 -407 -73 -35 -108 -39 -138 -16
-17 14 -23 26 -20 40 8 28 57 61 101 67 20 3 39 7 42 10 11 11 -88 -6 -128
-22 -43 -18 -82 -60 -82 -89 0 -28 57 -54 108 -50 153 13 279 106 352 260 22
45 40 87 40 93 0 5 33 27 73 49 39 22 85 51 101 64 175 138 239 341 123 389
-37 15 -127 12 -189 -7 -21 -6 -22 0 -7 28 20 37 1 30 -28 -10z m202 -58 c35
-46 30 -121 -13 -195 -37 -63 -67 -97 -132 -147 -30 -23 -61 -47 -67 -52 -7
-6 -13 -7 -13 -3 0 4 -5 2 -12 -5 -21 -21 -26 -13 -17 26 10 41 37 212 45 282
12 106 11 105 74 117 57 11 117 1 135 -23z"/>
<path d="M6236 1017 c-49 -30 -97 -103 -111 -166 -18 -82 4 -173 45 -186 63
-20 106 32 119 147 1 4 12 -4 25 -17 21 -21 29 -23 54 -14 16 5 35 22 42 37
16 32 22 173 9 193 -7 11 -9 10 -10 -6 -1 -11 0 -24 1 -30 4 -19 1 -99 -5
-126 -4 -15 -13 -30 -21 -33 -22 -8 -44 45 -49 121 -3 36 -7 68 -9 70 -2 2
-14 -5 -27 -15 -21 -18 -23 -28 -24 -108 -1 -49 -5 -105 -10 -124 -7 -32 -37
-70 -56 -70 -17 0 -29 41 -29 103 0 115 45 217 96 217 13 0 24 5 24 10 0 14
-40 12 -64 -3z"/>
<path d="M1840 960 c-66 -20 -67 -20 -81 -20 -5 0 -8 -4 -5 -9 4 -5 -8 -13
-26 -16 -44 -10 -58 -22 -58 -53 0 -26 43 -71 70 -73 57 -6 109 -5 134 2 50
14 41 1 -15 -24 -100 -44 -97 -44 -230 29 -130 71 -187 93 -232 88 -76 -8 -70
-68 13 -142 8 -7 43 -27 77 -43 54 -26 73 -30 145 -31 46 0 94 3 108 7 36 10
57 7 124 -14 70 -22 141 -18 205 10 58 25 46 35 -16 13 -57 -20 -145 -22 -191
-3 l-33 14 123 63 c69 34 135 62 149 62 23 0 22 1 -9 22 l-33 21 -77 -23 c-95
-27 -105 -29 -169 -34 -63 -5 -90 1 -98 22 -9 24 13 39 90 61 39 11 84 24 100
29 17 5 38 8 49 6 16 -2 16 0 -4 21 -30 32 -46 34 -110 15z m-245 -171 c75
-40 112 -64 104 -69 -16 -10 -121 -5 -190 9 -138 29 -204 136 -77 126 33 -3
81 -22 163 -66z"/>
<path d="M2927 689 c-171 -26 -218 -168 -77 -233 44 -21 73 -24 147 -17 13 1
63 51 63 64 0 4 -18 -4 -41 -18 -112 -72 -257 3 -194 99 9 13 39 34 68 47 46
21 69 24 189 25 75 1 159 -2 185 -7 49 -10 78 -15 123 -24 50 -10 80 -20 80
-28 0 -4 -31 -29 -69 -55 -69 -48 -90 -64 -235 -184 -127 -106 -223 -149 -330
-149 -131 0 -230 62 -186 117 18 21 84 17 131 -7 23 -11 38 -16 34 -10 -12 20
-100 54 -150 58 -59 5 -87 -11 -87 -51 0 -34 20 -56 81 -89 97 -53 229 -65
335 -31 28 9 83 33 121 53 54 29 76 36 97 30 41 -11 136 -21 199 -20 105 0
227 43 287 102 17 17 32 34 33 38 0 3 2 15 5 26 11 55 -76 143 -166 168 -10 3
-4 11 20 26 l35 22 -34 -6 c-19 -3 -41 -10 -49 -14 -8 -5 -34 -2 -61 6 -25 7
-55 15 -66 18 -11 2 -31 6 -45 9 -154 34 -346 49 -443 35z m670 -134 c89 -45
105 -117 40 -178 -83 -78 -214 -105 -414 -85 -22 2 -14 14 30 46 23 17 94 78
157 136 63 58 120 105 126 106 5 0 33 -11 61 -25z"/>
<path d="M4400 443 c-16 -16 -44 -55 -63 -88 -28 -52 -37 -60 -65 -63 -37 -4
-43 -19 -8 -24 l23 -3 -27 -70 c-50 -124 -45 -176 17 -188 60 -11 131 41 177
131 24 46 4 40 -22 -7 -42 -74 -126 -126 -147 -91 -4 6 -4 29 0 51 6 32 23 58
76 117 38 42 80 77 92 79 12 2 26 8 32 14 7 7 1 9 -18 5 -24 -4 -28 -2 -22 12
33 77 43 112 38 131 -8 30 -46 27 -83 -6z m60 -25 c-1 -32 -36 -107 -54 -114
-33 -13 -35 3 -8 56 15 30 31 61 35 68 13 19 27 14 27 -10z m-90 -178 c-17
-22 -36 -40 -41 -40 -5 0 0 18 11 40 14 27 27 40 41 40 19 0 18 -3 -11 -40z"/>
<path d="M3910 252 c-59 -20 -145 -106 -154 -155 -21 -113 150 -134 245 -30
36 39 63 83 51 83 -5 0 -17 -11 -26 -24 -37 -58 -118 -114 -156 -110 -43 5
-60 17 -60 43 0 39 19 58 65 65 54 9 56 10 85 25 45 24 70 54 70 83 0 15 -6
28 -12 29 -7 1 -24 2 -38 3 -14 2 -45 -4 -70 -12z m95 -24 c-8 -41 -84 -91
-143 -94 -21 -1 -19 3 19 42 65 66 132 94 124 52z"/>
</g>
</svg>
